<?xml version="1.0" encoding="utf-8"?>
<!-- Generator: Adobe Illustrator 22.1.0, SVG Export Plug-In . SVG Version: 6.00 Build 0)  -->
<!DOCTYPE svg PUBLIC "-//W3C//DTD SVG 1.1//EN" "http://www.w3.org/Graphics/SVG/1.1/DTD/svg11.dtd">
<svg version="1.1" id="Layer_1" xmlns="http://www.w3.org/2000/svg" xmlns:xlink="http://www.w3.org/1999/xlink" x="0px" y="0px"
	 viewBox="0 0 324 324" enable-background="new 0 0 324 324" xml:space="preserve">
<g>
	<path fill="#5BB5DD" d="M255.1,43.4c14.1,0,25.6,11.5,25.6,25.6v186.1c0,14.1-11.5,25.6-25.6,25.6H68.9
		c-14.1,0-25.6-11.5-25.6-25.6V69c0-14.1,11.5-25.6,25.6-25.6H255.1 M255.1,38.2H68.9c-17,0-30.8,13.8-30.8,30.8v186.1
		c0,17,13.8,30.8,30.8,30.8h186.2c17,0,30.8-13.8,30.8-30.8V69C285.9,52,272.1,38.2,255.1,38.2L255.1,38.2z"/>
</g>
<path opacity="0.32" fill="#5BB5DD" enable-background="new    " d="M255.1,280.8H68.9c-14.1,0-25.6-11.5-25.6-25.6V69
	c0-14.1,11.5-25.6,25.6-25.6h186.2c14.1,0,25.6,11.5,25.6,25.6v186.2C280.7,269.2,269.2,280.8,255.1,280.8z"/>
<polygon fill="#E3FDFF" stroke="#5BB5DD" stroke-width="7" stroke-miterlimit="10" points="248,230.1 94.2,228.6 94.2,111.1 
	248,112.6 "/>
<rect x="86.5" y="103.4" fill="#E3FDFF" stroke="#5BB5DD" stroke-width="7" stroke-miterlimit="10" width="152.2" height="117.5"/>
<polygon fill="#E3FDFF" stroke="#5BB5DD" stroke-width="7" stroke-miterlimit="10" points="207.8,212.6 77.6,212.6 77.6,94.9 
	229.8,94.9 229.8,190.1 "/>
<polyline fill="none" stroke="#5BB5DD" stroke-width="7" stroke-linecap="round" stroke-miterlimit="10" points="207.8,212.4 
	207.8,190.1 229.8,190.1 "/>
<path fill="none" stroke="#5BB5DD" stroke-width="7" stroke-miterlimit="10" d="M158.9,172.1l-5.1,19l-5.1-19
	c-1.7-6.5-6.8-11.6-13.4-13.4l-19-5.1l19-5.1c6.5-1.7,11.6-6.8,13.4-13.4l5.1-19l5.1,19c1.7,6.5,6.8,11.6,13.4,13.4l19,5.1l-19,5.1
	C165.7,160.6,160.6,165.8,158.9,172.1z"/>
<g>
	<path fill="#FF00F9" d="M96.9,248.8c0-0.8,0.7-1.5,1.5-1.5h4.1c3.3,0,5.3,1.9,5.3,4.7l0,0c0,3.2-2.5,4.8-5.5,4.8H100v2.7
		c0,0.8-0.7,1.5-1.5,1.5s-1.5-0.7-1.5-1.5L96.9,248.8L96.9,248.8z M102.3,254.2c1.5,0,2.4-0.9,2.4-2.1l0,0c0-1.4-0.9-2.1-2.5-2.1
		H100v4.2H102.3z"/>
	<path fill="#FF00F9" d="M109.1,255.8L109.1,255.8c0-3.1,2.4-5.5,5.7-5.5c3.3,0,5.7,2.4,5.7,5.4l0,0c0,3-2.4,5.5-5.7,5.5
		C111.5,261.2,109.1,258.8,109.1,255.8z M117.5,255.8L117.5,255.8c0-1.6-1.1-2.9-2.8-2.9c-1.7,0-2.7,1.3-2.7,2.9l0,0
		c0,1.5,1.1,2.9,2.8,2.9C116.5,258.7,117.5,257.4,117.5,255.8z"/>
	<path fill="#FF00F9" d="M122.6,251.9c0-0.8,0.7-1.5,1.5-1.5s1.5,0.7,1.5,1.5v0.5c0.4-1,1.1-2,2-2s1.5,0.6,1.5,1.5
		c0,0.8-0.5,1.3-1.1,1.4c-1.5,0.4-2.4,1.5-2.4,3.6v2.8c0,0.8-0.7,1.5-1.5,1.5s-1.5-0.7-1.5-1.5V251.9z"/>
	<path fill="#FF00F9" d="M131.3,258v-5h-0.1c-0.7,0-1.3-0.6-1.3-1.3s0.6-1.3,1.3-1.3h0.1v-1.3c0-0.8,0.7-1.5,1.5-1.5
		s1.5,0.7,1.5,1.5v1.3h1.3c0.7,0,1.3,0.6,1.3,1.3s-0.6,1.3-1.3,1.3h-1.3v4.5c0,0.7,0.3,1,1,1c0.1,0,0.3,0,0.4,0
		c0.7,0,1.2,0.5,1.2,1.2c0,0.5-0.4,1-0.8,1.1c-0.5,0.2-1.1,0.3-1.7,0.3C132.6,261.2,131.3,260.5,131.3,258z"/>
	<path fill="#FF00F9" d="M139.5,253h-0.1c-0.7,0-1.2-0.5-1.2-1.2s0.5-1.2,1.2-1.2h0.1v-0.7c0-1.2,0.3-2,0.8-2.5s1.4-0.8,2.4-0.8
		c0.5,0,0.9,0,1.2,0.1c0.5,0.1,1,0.5,1,1.2s-0.5,1.2-1.2,1.2h-0.3c-0.7,0-1.1,0.4-1.1,1.1v0.4h1.3c0.7,0,1.2,0.5,1.2,1.2
		s-0.5,1.2-1.2,1.2h-1.3v6.6c0,0.8-0.7,1.5-1.5,1.5s-1.5-0.7-1.5-1.5V253H139.5z"/>
	<path fill="#FF00F9" d="M145.7,255.8L145.7,255.8c0-3.1,2.4-5.5,5.7-5.5s5.7,2.4,5.7,5.4l0,0c0,3-2.4,5.5-5.7,5.5
		C148.2,261.2,145.7,258.8,145.7,255.8z M154.2,255.8L154.2,255.8c0-1.6-1.1-2.9-2.8-2.9s-2.7,1.3-2.7,2.9l0,0
		c0,1.5,1.1,2.9,2.8,2.9C153.2,258.7,154.2,257.4,154.2,255.8z"/>
	<path fill="#FF00F9" d="M159.4,248.1c0-0.8,0.7-1.5,1.5-1.5s1.5,0.7,1.5,1.5v11.6c0,0.8-0.7,1.5-1.5,1.5s-1.5-0.7-1.5-1.5V248.1z"
		/>
	<path fill="#FF00F9" d="M165.2,248c0-0.9,0.7-1.4,1.7-1.4s1.7,0.5,1.7,1.4l0,0c0,0.9-0.7,1.4-1.7,1.4S165.2,248.9,165.2,248
		L165.2,248z M165.3,251.9c0-0.8,0.7-1.5,1.5-1.5s1.5,0.7,1.5,1.5v7.8c0,0.8-0.7,1.5-1.5,1.5s-1.5-0.7-1.5-1.5V251.9z"/>
	<path fill="#FF00F9" d="M170.6,255.8L170.6,255.8c0-3.1,2.4-5.5,5.7-5.5s5.7,2.4,5.7,5.4l0,0c0,3-2.4,5.5-5.7,5.5
		C173,261.2,170.6,258.8,170.6,255.8z M179,255.8L179,255.8c0-1.6-1.1-2.9-2.8-2.9s-2.7,1.3-2.7,2.9l0,0c0,1.5,1.1,2.9,2.8,2.9
		C178,258.7,179,257.4,179,255.8z"/>
	<path fill="#FF00F9" d="M190.3,248.8c0-0.8,0.7-1.5,1.5-1.5h4.1c3.3,0,5.3,1.9,5.3,4.7l0,0c0,3.2-2.5,4.8-5.5,4.8h-2.3v2.7
		c0,0.8-0.7,1.5-1.5,1.5s-1.5-0.7-1.5-1.5v-10.7H190.3z M195.7,254.2c1.5,0,2.4-0.9,2.4-2.1l0,0c0-1.4-0.9-2.1-2.5-2.1h-2.3v4.2
		H195.7z"/>
	<path fill="#FF00F9" d="M203.4,248.8c0-0.8,0.7-1.5,1.5-1.5h3.8c4.3,0,7.3,3,7.3,6.8l0,0c0,3.9-3,6.9-7.3,6.9h-3.8
		c-0.8,0-1.5-0.7-1.5-1.5V248.8z M208.8,258.3c2.5,0,4.1-1.7,4.1-4.1l0,0c0-2.4-1.7-4.1-4.1-4.1h-2.3v8.3L208.8,258.3L208.8,258.3z"
		/>
	<path fill="#FF00F9" d="M218.7,248.8c0-0.8,0.7-1.5,1.5-1.5h7.7c0.8,0,1.4,0.6,1.4,1.4s-0.6,1.4-1.4,1.4h-6.2v2.9h5.3
		c0.8,0,1.4,0.6,1.4,1.4s-0.6,1.4-1.4,1.4h-5.3v3.9c0,0.8-0.7,1.5-1.5,1.5s-1.5-0.7-1.5-1.5V248.8z"/>
</g>
</svg>
