<?xml version="1.0" encoding="utf-8"?>
<!-- Generator: Adobe Illustrator 18.1.1, SVG Export Plug-In . SVG Version: 6.00 Build 0)  -->
<!DOCTYPE svg PUBLIC "-//W3C//DTD SVG 1.1//EN" "http://www.w3.org/Graphics/SVG/1.1/DTD/svg11.dtd">
<svg version="1.1" id="Layer_1" xmlns="http://www.w3.org/2000/svg" xmlns:xlink="http://www.w3.org/1999/xlink" x="0px" y="0px"
	 viewBox="0 54 324 324" enable-background="new 0 54 324 324" xml:space="preserve">
<g>
	<path fill="#5BB5DD" d="M255.1,97.4c14.1,0,25.6,11.5,25.6,25.6v186.1c0,14.1-11.5,25.6-25.6,25.6H68.9
		c-14.1,0-25.6-11.5-25.6-25.6V123c0-14.1,11.5-25.6,25.6-25.6H255.1 M255.1,92.2H68.9c-17,0-30.8,13.8-30.8,30.8v186.1
		c0,17,13.8,30.8,30.8,30.8h186.2c17,0,30.8-13.8,30.8-30.8V123C285.9,106,272.1,92.2,255.1,92.2L255.1,92.2z"/>
</g>
<path fill="#FF00F9" stroke="#5BB5DD" stroke-width="7" stroke-miterlimit="10" d="M255.1,334.8H68.9c-14.1,0-25.6-11.5-25.6-25.6
	V123c0-14.1,11.5-25.6,25.6-25.6h186.2c14.1,0,25.6,11.5,25.6,25.6v186.2C280.7,323.3,269.2,334.8,255.1,334.8z"/>
<polygon fill="#E3FDFF" stroke="#5BB5DD" stroke-width="7" stroke-miterlimit="10" points="248,299.1 94.2,297.6 94.2,180.1 
	248,181.6 "/>
<rect x="86.5" y="172.4" fill="#E3FDFF" stroke="#5BB5DD" stroke-width="7" stroke-miterlimit="10" width="152.2" height="117.5"/>
<polygon fill="#E3FDFF" stroke="#5BB5DD" stroke-width="7" stroke-miterlimit="10" points="207.8,281.6 77.6,281.6 77.6,163.9 
	229.8,163.9 229.8,259.3 "/>
<polyline fill="none" stroke="#5BB5DD" stroke-width="7" stroke-linecap="round" stroke-miterlimit="10" points="207.8,281.4 
	207.8,259.3 229.8,259.3 "/>
<path fill="#FF00F9" stroke="#5BB5DD" stroke-width="7" stroke-miterlimit="10" d="M158.9,241.2l-5.1,19l-5.1-19
	c-1.7-6.5-6.8-11.6-13.4-13.4l-19-5.1l19-5.1c6.5-1.7,11.6-6.8,13.4-13.4l5.1-19l5.1,19c1.7,6.5,6.8,11.6,13.4,13.4l19,5.1l-19,5.1
	C165.7,229.7,160.6,234.8,158.9,241.2z"/>
</svg>
