<?xml version="1.0" encoding="utf-8"?>
<!-- Generator: Adobe Illustrator 22.1.0, SVG Export Plug-In . SVG Version: 6.00 Build 0)  -->
<!DOCTYPE svg PUBLIC "-//W3C//DTD SVG 1.1//EN" "http://www.w3.org/Graphics/SVG/1.1/DTD/svg11.dtd">
<svg version="1.1" id="Layer_1" xmlns="http://www.w3.org/2000/svg" xmlns:xlink="http://www.w3.org/1999/xlink" x="0px" y="0px"
	 viewBox="0 0 612 612" style="enable-background:new 0 0 612 612;" xml:space="preserve">
<style type="text/css">
	.st0{fill:#5BB5DD;}
	.st1{fill:#FF00F9;}
	.st2{fill:#0DF4FF;stroke:#FF00F9;stroke-miterlimit:10;}
	.st3{fill:none;stroke:#FF00F9;stroke-width:1.4;stroke-linecap:round;stroke-linejoin:round;stroke-miterlimit:10;}
	.st4{fill:#0DF4FF;}
	.st5{fill:none;stroke:#FF00F9;stroke-width:1.4;stroke-linejoin:round;stroke-miterlimit:10;}
	.st6{fill:none;stroke:#FF00F9;stroke-width:1.4;stroke-miterlimit:10;}
	.st7{enable-background:new    ;}
</style>
<g>
	<path class="st0" d="M481.9,81.9c26.6,0,48.4,21.7,48.4,48.4v351.5c0,26.6-21.7,48.4-48.4,48.4H130.1c-26.6,0-48.4-21.7-48.4-48.4
		V130.2c0-26.6,21.7-48.4,48.4-48.4h351.8 M481.9,72.1H130.1C98,72.1,72,98.1,72,130.2v351.5c0,32.1,26.1,58.2,58.2,58.2h351.7
		c32.1,0,58.2-26.1,58.2-58.2V130.2C540,98.1,514,72.1,481.9,72.1L481.9,72.1z"/>
</g>
<path class="st1" d="M481.9,530.2H130.1c-26.6,0-48.4-21.7-48.4-48.4V130.1c0-26.6,21.7-48.4,48.4-48.4h351.7
	c26.6,0,48.4,21.7,48.4,48.4v351.7C530.2,508.5,508.5,530.2,481.9,530.2z"/>
<g>
	<g>
		<path class="st2" d="M440.6,509.4h71.3c4.9,0,8.8-3.9,8.8-8.8v-71.4l0,0l0,0V231.6c0-4.8-4-8.8-8.8-8.8H158.5
			c-4.8,0-8.8,4-8.8,8.8v269.1c0,4.8,4,8.8,8.8,8.8L440.6,509.4L440.6,509.4z"/>
		<path class="st3" d="M440.6,509.4h71.3c4.9,0,8.8-3.9,8.8-8.8v-71.4l0,0l0,0V231.6c0-4.8-4-8.8-8.8-8.8H158.5
			c-4.8,0-8.8,4-8.8,8.8v269.1c0,4.8,4,8.8,8.8,8.8L440.6,509.4L440.6,509.4z"/>
	</g>
	<g>
		<path class="st2" d="M426,494.7h71.3c4.9,0,8.8-3.9,8.8-8.8v-71.4l0,0l0,0V216.9c0-4.8-4-8.8-8.8-8.8H144c-4.8,0-8.8,4-8.8,8.8
			V486c0,4.8,4,8.8,8.8,8.8L426,494.7L426,494.7z"/>
		<path class="st3" d="M426,494.7h71.3c4.9,0,8.8-3.9,8.8-8.8v-71.4l0,0l0,0V216.9c0-4.8-4-8.8-8.8-8.8H144c-4.8,0-8.8,4-8.8,8.8
			V486c0,4.8,4,8.8,8.8,8.8L426,494.7L426,494.7z"/>
	</g>
	<path class="st4" d="M491.5,400V202.4c0-4.8-4-8.8-8.8-8.8H129.3c-4.8,0-8.8,4-8.8,8.8v269.1c0,4.8,4,8.8,8.8,8.8h282L491.5,400z"
		/>
	<path class="st5" d="M491.5,400V202.4c0-4.8-4-8.8-8.8-8.8H129.3c-4.8,0-8.8,4-8.8,8.8v269.1c0,4.8,4,8.8,8.8,8.8h282L491.5,400z"
		/>
	<path class="st4" d="M227.1,465.6H93.9c-2,0-3.6-1.6-3.6-3.6v-58.6c0-2,1.6-3.6,3.6-3.6h133.2c2,0,3.6,1.6,3.6,3.6V462
		C230.7,464,229.1,465.6,227.1,465.6z"/>
	<path class="st3" d="M411.3,408.8v71.4l80.2-80.2h-71.4C415.2,400,411.3,403.9,411.3,408.8z"/>
	<path class="st6" d="M227.1,465.6H93.9c-2,0-3.6-1.6-3.6-3.6v-58.6c0-2,1.6-3.6,3.6-3.6h133.2c2,0,3.6,1.6,3.6,3.6V462
		C230.7,464,229.1,465.6,227.1,465.6z"/>
	<g>
		<g>
			<g class="st7">
				<path class="st1" d="M112.8,420.4c0-2.1,1.7-3.8,3.8-3.8h10.3c8.2,0,13.2,4.9,13.2,11.9v0.1c0,8-6.2,12.1-13.9,12.1h-5.8v6.8
					c0,2.1-1.7,3.8-3.8,3.8s-3.8-1.7-3.8-3.8C112.8,447.5,112.8,420.4,112.8,420.4z M126.4,433.9c3.8,0,6-2.3,6-5.2v-0.1
					c0-3.4-2.4-5.2-6.1-5.2h-5.9v10.5L126.4,433.9L126.4,433.9z"/>
				<path class="st1" d="M145.7,420.4c0-2.1,1.7-3.8,3.8-3.8h9.6c10.8,0,18.3,7.4,18.3,17.1v0.1c0,9.7-7.5,17.2-18.3,17.2h-9.6
					c-2.1,0-3.8-1.7-3.8-3.8V420.4z M159.1,444.2c6.2,0,10.4-4.2,10.4-10.3v-0.1c0-6.1-4.2-10.4-10.4-10.4h-5.8v20.8H159.1z"/>
				<path class="st1" d="M184.1,420.4c0-2.1,1.7-3.8,3.8-3.8h19.3c1.9,0,3.4,1.5,3.4,3.4s-1.5,3.4-3.4,3.4h-15.5v7.3H205
					c1.9,0,3.4,1.5,3.4,3.4s-1.5,3.4-3.4,3.4h-13.3v9.8c0,2.1-1.7,3.8-3.8,3.8s-3.8-1.7-3.8-3.8L184.1,420.4L184.1,420.4z"/>
			</g>
		</g>
	</g>
	<g>
		<g>
			<path class="st1" d="M136.1,217.9c0-2.4,1.9-4.4,4.4-4.4h11.8c9.4,0,15.1,5.6,15.1,13.7v0.1c0,9.2-7.1,13.9-16,13.9h-6.6v7.9
				c0,2.4-1.9,4.4-4.4,4.4c-2.4,0-4.4-1.9-4.4-4.4L136.1,217.9L136.1,217.9z M151.7,233.5c4.4,0,6.9-2.6,6.9-6v-0.1
				c0-3.9-2.7-6-7.1-6h-6.7v12.1H151.7z"/>
			<path class="st1" d="M172.2,233.5v-0.1c0-11.2,8.9-20.5,21.1-20.5s21,9.1,21,20.3v0.1c0,11.2-8.9,20.5-21.1,20.5
				S172.2,244.7,172.2,233.5z M205.1,233.5v-0.1c0-6.8-5-12.4-12-12.4s-11.9,5.5-11.9,12.3v0.1c0,6.8,5,12.4,12,12.4
				C200.2,245.8,205.1,240.2,205.1,233.5z"/>
			<path class="st1" d="M222,217.9c0-2.4,1.9-4.4,4.4-4.4H240c5,0,8.9,1.4,11.5,4c2.2,2.2,3.4,5.3,3.4,9v0.1c0,6.2-3.1,10.1-7.9,12
				l6,7.3c0.8,1.1,1.4,2,1.4,3.3c0,2.4-2,4-4.1,4c-2,0-3.3-1-4.3-2.3l-8.5-10.7h-7v8.6c0,2.4-1.9,4.4-4.4,4.4
				c-2.4,0-4.4-1.9-4.4-4.4v-30.9H222z M239.5,232.8c4.2,0,6.7-2.3,6.7-5.6v-0.1c0-3.7-2.6-5.7-6.8-5.7h-8.6v11.4L239.5,232.8
				L239.5,232.8z"/>
			<path class="st1" d="M272,221.6h-8.4c-2.2,0-4-1.8-4-4s1.8-4,4-4H289c2.2,0,4,1.8,4,4s-1.8,4-4,4h-8.4v27.5
				c0,2.4-1.9,4.4-4.4,4.4c-2.4,0-4.4-1.9-4.4-4.4v-27.5H272z"/>
			<path class="st1" d="M299.4,217.9c0-2.4,1.9-4.4,4.4-4.4H326c2.2,0,4,1.8,4,4s-1.8,4-4,4h-17.8v8.4h15.3c2.2,0,4,1.8,4,4
				s-1.8,4-4,4h-15.3v11.3c0,2.4-1.9,4.4-4.4,4.4s-4.4-1.9-4.4-4.4L299.4,217.9L299.4,217.9z"/>
			<path class="st1" d="M334.8,233.5v-0.1c0-11.2,8.9-20.5,21.1-20.5s21,9.1,21,20.3v0.1c0,11.2-8.9,20.5-21.1,20.5
				S334.8,244.7,334.8,233.5z M367.7,233.5v-0.1c0-6.8-5-12.4-12-12.4s-11.9,5.5-11.9,12.3v0.1c0,6.8,5,12.4,12,12.4
				C362.9,245.8,367.7,240.2,367.7,233.5z"/>
			<path class="st1" d="M384.6,217.6c0-2.4,1.9-4.4,4.4-4.4c2.4,0,4.4,1.9,4.4,4.4v27.6h16.1c2.2,0,4,1.8,4,4s-1.8,4-4,4H389
				c-2.4,0-4.4-1.9-4.4-4.4V217.6z"/>
			<path class="st1" d="M420,217.6c0-2.4,1.9-4.4,4.4-4.4s4.4,1.9,4.4,4.4v31.5c0,2.4-1.9,4.4-4.4,4.4s-4.4-1.9-4.4-4.4V217.6z"/>
			<path class="st1" d="M436.8,233.5v-0.1c0-11.2,8.9-20.5,21.1-20.5s21,9.1,21,20.3v0.1c0,11.2-8.9,20.5-21.1,20.5
				S436.8,244.7,436.8,233.5z M469.8,233.5v-0.1c0-6.8-5-12.4-12-12.4s-11.9,5.5-11.9,12.3v0.1c0,6.8,5,12.4,12,12.4
				S469.8,240.2,469.8,233.5z"/>
		</g>
	</g>
</g>
</svg>
