<?xml version="1.0" encoding="utf-8"?>
<!-- Generator: Adobe Illustrator 18.1.1, SVG Export Plug-In . SVG Version: 6.00 Build 0)  -->
<!DOCTYPE svg PUBLIC "-//W3C//DTD SVG 1.1//EN" "http://www.w3.org/Graphics/SVG/1.1/DTD/svg11.dtd">
<svg version="1.1" id="Layer_1" xmlns="http://www.w3.org/2000/svg" xmlns:xlink="http://www.w3.org/1999/xlink" x="0px" y="0px"
	 viewBox="0 54 324 324" enable-background="new 0 54 324 324" xml:space="preserve">
<g>
	<path fill="#5BB5DD" d="M255.1,97.4c14.1,0,25.6,11.5,25.6,25.6v186.1c0,14.1-11.5,25.6-25.6,25.6H68.9
		c-14.1,0-25.6-11.5-25.6-25.6V123c0-14.1,11.5-25.6,25.6-25.6H255.1 M255.1,92.2H68.9c-17,0-30.8,13.8-30.8,30.8v186.1
		c0,17,13.8,30.8,30.8,30.8h186.2c17,0,30.8-13.8,30.8-30.8V123C285.9,106,272.1,92.2,255.1,92.2L255.1,92.2z"/>
</g>
<path opacity="0.32" fill="#FF00F9" enable-background="new    " d="M255.1,334.8H68.9c-14.1,0-25.6-11.5-25.6-25.6V123
	c0-14.1,11.5-25.6,25.6-25.6h186.2c14.1,0,25.6,11.5,25.6,25.6v186.2C280.7,323.2,269.2,334.8,255.1,334.8z"/>
<polygon fill="#E3FDFF" stroke="#5BB5DD" stroke-width="7" stroke-miterlimit="10" points="248,284.1 94.2,282.6 94.2,165.1 
	248,166.6 "/>
<rect x="86.5" y="157.4" fill="#E3FDFF" stroke="#5BB5DD" stroke-width="7" stroke-miterlimit="10" width="152.2" height="117.5"/>
<polygon fill="#E3FDFF" stroke="#5BB5DD" stroke-width="7" stroke-miterlimit="10" points="207.8,266.6 77.6,266.6 77.6,148.9 
	229.8,148.9 229.8,244.1 "/>
<polyline fill="none" stroke="#5BB5DD" stroke-width="7" stroke-linecap="round" stroke-miterlimit="10" points="207.8,266.4 
	207.8,244.1 229.8,244.1 "/>
<path fill="#FF00F9" stroke="#5BB5DD" stroke-width="7" stroke-miterlimit="10" d="M158.9,226.1l-5.1,19l-5.1-19
	c-1.7-6.5-6.8-11.6-13.4-13.4l-19-5.1l19-5.1c6.5-1.7,11.6-6.8,13.4-13.4l5.1-19l5.1,19c1.7,6.5,6.8,11.6,13.4,13.4l19,5.1l-19,5.1
	C165.7,214.6,160.6,219.8,158.9,226.1z"/>
<g>
	<path fill="#5BB5DD" d="M255.1,97.4c14.1,0,25.6,11.5,25.6,25.6v186.1c0,14.1-11.5,25.6-25.6,25.6H68.9
		c-14.1,0-25.6-11.5-25.6-25.6V123c0-14.1,11.5-25.6,25.6-25.6H255.1 M255.1,92.2H68.9c-17,0-30.8,13.8-30.8,30.8v186.1
		c0,17,13.8,30.8,30.8,30.8h186.2c17,0,30.8-13.8,30.8-30.8V123C285.9,106,272.1,92.2,255.1,92.2L255.1,92.2z"/>
</g>
<g>
	<path fill="#FF00F9" d="M96.9,302.8c0-0.8,0.7-1.5,1.5-1.5h4.1c3.3,0,5.3,1.9,5.3,4.7v0c0,3.2-2.5,4.8-5.5,4.8H100v2.7
		c0,0.8-0.7,1.5-1.5,1.5s-1.5-0.7-1.5-1.5V302.8z M102.3,308.2c1.5,0,2.4-0.9,2.4-2.1v0c0-1.4-0.9-2.1-2.5-2.1H100v4.2H102.3z"/>
	<path fill="#FF00F9" d="M109.1,309.8L109.1,309.8c0-3.1,2.4-5.5,5.7-5.5c3.3,0,5.7,2.4,5.7,5.4v0c0,3-2.4,5.5-5.7,5.5
		C111.5,315.2,109.1,312.8,109.1,309.8z M117.5,309.8L117.5,309.8c0-1.6-1.1-2.9-2.8-2.9c-1.7,0-2.7,1.3-2.7,2.9v0
		c0,1.5,1.1,2.9,2.8,2.9C116.5,312.7,117.5,311.4,117.5,309.8z"/>
	<path fill="#FF00F9" d="M122.6,305.9c0-0.8,0.7-1.5,1.5-1.5c0.8,0,1.5,0.7,1.5,1.5v0.5c0.4-1,1.1-2,2-2c0.9,0,1.5,0.6,1.5,1.5
		c0,0.8-0.5,1.3-1.1,1.4c-1.5,0.4-2.4,1.5-2.4,3.6v2.8c0,0.8-0.7,1.5-1.5,1.5c-0.8,0-1.5-0.7-1.5-1.5V305.9z"/>
	<path fill="#FF00F9" d="M131.3,312v-5h-0.1c-0.7,0-1.3-0.6-1.3-1.3s0.6-1.3,1.3-1.3h0.1v-1.3c0-0.8,0.7-1.5,1.5-1.5
		c0.8,0,1.5,0.7,1.5,1.5v1.3h1.3c0.7,0,1.3,0.6,1.3,1.3s-0.6,1.3-1.3,1.3h-1.3v4.5c0,0.7,0.3,1,1,1c0.1,0,0.3,0,0.4,0
		c0.7,0,1.2,0.5,1.2,1.2c0,0.5-0.4,1-0.8,1.1c-0.5,0.2-1.1,0.3-1.7,0.3C132.6,315.2,131.3,314.5,131.3,312z"/>
	<path fill="#FF00F9" d="M139.5,307h-0.1c-0.7,0-1.2-0.5-1.2-1.2c0-0.7,0.5-1.2,1.2-1.2h0.1v-0.7c0-1.2,0.3-2,0.8-2.5
		c0.5-0.5,1.4-0.8,2.4-0.8c0.5,0,0.9,0,1.2,0.1c0.5,0.1,1,0.5,1,1.2c0,0.7-0.5,1.2-1.2,1.2h-0.3c-0.7,0-1.1,0.4-1.1,1.1v0.4h1.3
		c0.7,0,1.2,0.5,1.2,1.2c0,0.7-0.5,1.2-1.2,1.2h-1.3v6.6c0,0.8-0.7,1.5-1.5,1.5c-0.8,0-1.5-0.7-1.5-1.5V307z"/>
	<path fill="#FF00F9" d="M145.7,309.8L145.7,309.8c0-3.1,2.4-5.5,5.7-5.5c3.3,0,5.7,2.4,5.7,5.4v0c0,3-2.4,5.5-5.7,5.5
		C148.2,315.2,145.7,312.8,145.7,309.8z M154.2,309.8L154.2,309.8c0-1.6-1.1-2.9-2.8-2.9c-1.7,0-2.7,1.3-2.7,2.9v0
		c0,1.5,1.1,2.9,2.8,2.9C153.2,312.7,154.2,311.4,154.2,309.8z"/>
	<path fill="#FF00F9" d="M159.4,302.1c0-0.8,0.7-1.5,1.5-1.5c0.8,0,1.5,0.7,1.5,1.5v11.6c0,0.8-0.7,1.5-1.5,1.5
		c-0.8,0-1.5-0.7-1.5-1.5V302.1z"/>
	<path fill="#FF00F9" d="M165.2,302c0-0.9,0.7-1.4,1.7-1.4s1.7,0.5,1.7,1.4v0c0,0.9-0.7,1.4-1.7,1.4S165.2,302.9,165.2,302
		L165.2,302z M165.3,305.9c0-0.8,0.7-1.5,1.5-1.5s1.5,0.7,1.5,1.5v7.8c0,0.8-0.7,1.5-1.5,1.5s-1.5-0.7-1.5-1.5V305.9z"/>
	<path fill="#FF00F9" d="M170.6,309.8L170.6,309.8c0-3.1,2.4-5.5,5.7-5.5c3.3,0,5.7,2.4,5.7,5.4v0c0,3-2.4,5.5-5.7,5.5
		C173,315.2,170.6,312.8,170.6,309.8z M179,309.8L179,309.8c0-1.6-1.1-2.9-2.8-2.9c-1.7,0-2.7,1.3-2.7,2.9v0c0,1.5,1.1,2.9,2.8,2.9
		C178,312.7,179,311.4,179,309.8z"/>
	<path fill="#FF00F9" d="M190.3,302.8c0-0.8,0.7-1.5,1.5-1.5h4.1c3.3,0,5.3,1.9,5.3,4.7v0c0,3.2-2.5,4.8-5.5,4.8h-2.3v2.7
		c0,0.8-0.7,1.5-1.5,1.5c-0.8,0-1.5-0.7-1.5-1.5V302.8z M195.7,308.2c1.5,0,2.4-0.9,2.4-2.1v0c0-1.4-0.9-2.1-2.5-2.1h-2.3v4.2H195.7
		z"/>
	<path fill="#FF00F9" d="M203.4,302.8c0-0.8,0.7-1.5,1.5-1.5h3.8c4.3,0,7.3,3,7.3,6.8v0c0,3.9-3,6.9-7.3,6.9h-3.8
		c-0.8,0-1.5-0.7-1.5-1.5V302.8z M208.8,312.3c2.5,0,4.1-1.7,4.1-4.1v0c0-2.4-1.7-4.1-4.1-4.1h-2.3v8.3H208.8z"/>
	<path fill="#FF00F9" d="M218.7,302.8c0-0.8,0.7-1.5,1.5-1.5h7.7c0.8,0,1.4,0.6,1.4,1.4s-0.6,1.4-1.4,1.4h-6.2v2.9h5.3
		c0.8,0,1.4,0.6,1.4,1.4s-0.6,1.4-1.4,1.4h-5.3v3.9c0,0.8-0.7,1.5-1.5,1.5c-0.8,0-1.5-0.7-1.5-1.5V302.8z"/>
</g>
</svg>
