<?xml version="1.0" encoding="utf-8"?>
<!-- Generator: Adobe Illustrator 22.1.0, SVG Export Plug-In . SVG Version: 6.00 Build 0)  -->
<!DOCTYPE svg PUBLIC "-//W3C//DTD SVG 1.1//EN" "http://www.w3.org/Graphics/SVG/1.1/DTD/svg11.dtd">
<svg version="1.1" id="Layer_1" xmlns="http://www.w3.org/2000/svg" xmlns:xlink="http://www.w3.org/1999/xlink" x="0px" y="0px"
	 viewBox="0 0 612 612" style="enable-background:new 0 0 612 612;" xml:space="preserve">
<style type="text/css">
	.st0{fill:#5BB5DD;}
	.st1{opacity:0.32;fill:#FF00F9;enable-background:new    ;}
	.st2{fill:#F9E4D7;stroke:#0DF4FF;stroke-miterlimit:10;}
	.st3{fill:none;stroke:#0DF4FF;stroke-width:1.4;stroke-linecap:round;stroke-linejoin:round;stroke-miterlimit:10;}
	.st4{fill:#F9E4D7;}
	.st5{fill:none;stroke:#0DF4FF;stroke-width:1.4;stroke-linejoin:round;stroke-miterlimit:10;}
	.st6{fill:#FF00F9;}
	.st7{fill:none;stroke:#0DF4FF;stroke-width:1.4;stroke-miterlimit:10;}
	.st8{enable-background:new    ;}
	.st9{fill:#0DF4FF;}
</style>
<g>
	<path class="st0" d="M481.9,81.9c26.6,0,48.4,21.7,48.4,48.4v351.5c0,26.6-21.7,48.4-48.4,48.4H130.1c-26.6,0-48.4-21.7-48.4-48.4
		V130.2c0-26.6,21.7-48.4,48.4-48.4h351.8 M481.9,72.1H130.1C98,72.1,72,98.1,72,130.2v351.5c0,32.1,26.1,58.2,58.2,58.2h351.7
		c32.1,0,58.2-26.1,58.2-58.2V130.2C540,98.1,514,72.1,481.9,72.1L481.9,72.1z"/>
</g>
<path class="st1" d="M481.9,530.2H130.1c-26.6,0-48.4-21.7-48.4-48.4V130.1c0-26.6,21.7-48.4,48.4-48.4h351.7
	c26.6,0,48.4,21.7,48.4,48.4v351.7C530.2,508.5,508.5,530.2,481.9,530.2z"/>
<g>
	<g>
		<g>
			<path class="st2" d="M441.5,479.4h71.3c4.9,0,8.8-3.9,8.8-8.8v-71.4l0,0l0,0V201.6c0-4.8-4-8.8-8.8-8.8H159.4
				c-4.8,0-8.8,4-8.8,8.8v269.1c0,4.8,4,8.8,8.8,8.8L441.5,479.4L441.5,479.4z"/>
			<path class="st3" d="M441.5,479.4h71.3c4.9,0,8.8-3.9,8.8-8.8v-71.4l0,0l0,0V201.6c0-4.8-4-8.8-8.8-8.8H159.4
				c-4.8,0-8.8,4-8.8,8.8v269.1c0,4.8,4,8.8,8.8,8.8L441.5,479.4L441.5,479.4z"/>
		</g>
	</g>
	<g>
		<g>
			<path class="st2" d="M426,464.7h71.3c4.9,0,8.8-3.9,8.8-8.8v-71.4l0,0l0,0V186.9c0-4.8-4-8.8-8.8-8.8H144c-4.8,0-8.8,4-8.8,8.8
				v269.1c0,4.8,4,8.8,8.8,8.8L426,464.7L426,464.7z"/>
			<path class="st3" d="M426,464.7h71.3c4.9,0,8.8-3.9,8.8-8.8v-71.4l0,0l0,0V186.9c0-4.8-4-8.8-8.8-8.8H144c-4.8,0-8.8,4-8.8,8.8
				v269.1c0,4.8,4,8.8,8.8,8.8L426,464.7L426,464.7z"/>
		</g>
	</g>
	<path class="st4" d="M491.5,370V172.4c0-4.8-4-8.8-8.8-8.8H129.3c-4.8,0-8.8,4-8.8,8.8v269.1c0,4.8,4,8.8,8.8,8.8h282L491.5,370z"
		/>
	<path class="st5" d="M491.5,370V172.4c0-4.8-4-8.8-8.8-8.8H129.3c-4.8,0-8.8,4-8.8,8.8v269.1c0,4.8,4,8.8,8.8,8.8h282L491.5,370z"
		/>
	<path class="st6" d="M227.1,435.6H93.9c-2,0-3.6-1.6-3.6-3.6v-58.6c0-2,1.6-3.6,3.6-3.6h133.2c2,0,3.6,1.6,3.6,3.6V432
		C230.7,434,229.1,435.6,227.1,435.6z"/>
	<path class="st3" d="M411.3,378.8v71.4l80.2-80.2h-71.4C415.2,370,411.3,373.9,411.3,378.8z"/>
	<path class="st7" d="M227.1,435.6H93.9c-2,0-3.6-1.6-3.6-3.6v-58.6c0-2,1.6-3.6,3.6-3.6h133.2c2,0,3.6,1.6,3.6,3.6V432
		C230.7,434,229.1,435.6,227.1,435.6z"/>
	<g>
		<g class="st8">
			<path class="st9" d="M112.8,390.4c0-2.1,1.7-3.8,3.8-3.8h10.3c8.2,0,13.2,4.9,13.2,11.9v0.1c0,8-6.2,12.1-13.9,12.1h-5.8v6.8
				c0,2.1-1.7,3.8-3.8,3.8s-3.8-1.7-3.8-3.8V390.4z M126.4,403.9c3.8,0,6-2.3,6-5.2v-0.1c0-3.4-2.4-5.2-6.1-5.2h-5.9v10.5H126.4z"/>
			<path class="st9" d="M145.7,390.4c0-2.1,1.7-3.8,3.8-3.8h9.6c10.8,0,18.3,7.4,18.3,17.1v0.1c0,9.7-7.5,17.2-18.3,17.2h-9.6
				c-2.1,0-3.8-1.7-3.8-3.8V390.4z M159.1,414.2c6.2,0,10.4-4.2,10.4-10.3v-0.1c0-6.1-4.2-10.4-10.4-10.4h-5.8v20.8H159.1z"/>
			<path class="st9" d="M184.1,390.4c0-2.1,1.7-3.8,3.8-3.8h19.3c1.9,0,3.4,1.5,3.4,3.4s-1.5,3.4-3.4,3.4h-15.5v7.3H205
				c1.9,0,3.4,1.5,3.4,3.4s-1.5,3.4-3.4,3.4h-13.3v9.8c0,2.1-1.7,3.8-3.8,3.8s-3.8-1.7-3.8-3.8V390.4z"/>
		</g>
	</g>
	<g>
		<path class="st9" d="M136.1,187.9c0-2.4,1.9-4.4,4.4-4.4h11.8c9.4,0,15.1,5.6,15.1,13.7v0.1c0,9.2-7.1,13.9-16,13.9h-6.6v7.9
			c0,2.4-1.9,4.4-4.4,4.4c-2.4,0-4.4-1.9-4.4-4.4V187.9z M151.7,203.5c4.4,0,6.9-2.6,6.9-6v-0.1c0-3.9-2.7-6-7.1-6h-6.7v12.1H151.7z
			"/>
		<path class="st9" d="M172.2,203.5v-0.1c0-11.2,8.9-20.5,21.1-20.5s21,9.1,21,20.3v0.1c0,11.2-8.9,20.5-21.1,20.5
			S172.2,214.7,172.2,203.5z M205.1,203.5v-0.1c0-6.8-5-12.4-12-12.4s-11.9,5.5-11.9,12.3v0.1c0,6.8,5,12.4,12,12.4
			C200.2,215.8,205.1,210.2,205.1,203.5z"/>
		<path class="st9" d="M222,187.9c0-2.4,1.9-4.4,4.4-4.4H240c5,0,8.9,1.4,11.5,4c2.2,2.2,3.4,5.3,3.4,9v0.1c0,6.2-3.1,10.1-7.9,12
			l6,7.3c0.8,1.1,1.4,2,1.4,3.3c0,2.4-2,4-4.1,4c-2,0-3.3-1-4.3-2.3l-8.5-10.7h-7v8.6c0,2.4-1.9,4.4-4.4,4.4c-2.4,0-4.4-1.9-4.4-4.4
			V187.9z M239.5,202.8c4.2,0,6.7-2.3,6.7-5.6v-0.1c0-3.7-2.6-5.7-6.8-5.7h-8.6v11.4H239.5z"/>
		<path class="st9" d="M272,191.6h-8.4c-2.2,0-4-1.8-4-4c0-2.2,1.8-4,4-4h25.4c2.2,0,4,1.8,4,4c0,2.2-1.8,4-4,4h-8.4v27.5
			c0,2.4-1.9,4.4-4.4,4.4c-2.4,0-4.4-1.9-4.4-4.4V191.6z"/>
		<path class="st9" d="M299.4,187.9c0-2.4,1.9-4.4,4.4-4.4H326c2.2,0,4,1.8,4,4c0,2.2-1.8,4-4,4h-17.8v8.4h15.3c2.2,0,4,1.8,4,4
			c0,2.2-1.8,4-4,4h-15.3v11.3c0,2.4-1.9,4.4-4.4,4.4s-4.4-1.9-4.4-4.4V187.9z"/>
		<path class="st9" d="M334.8,203.5v-0.1c0-11.2,8.9-20.5,21.1-20.5s21,9.1,21,20.3v0.1c0,11.2-8.9,20.5-21.1,20.5
			S334.8,214.7,334.8,203.5z M367.7,203.5v-0.1c0-6.8-5-12.4-12-12.4s-11.9,5.5-11.9,12.3v0.1c0,6.8,5,12.4,12,12.4
			C362.9,215.8,367.7,210.2,367.7,203.5z"/>
		<path class="st9" d="M384.6,187.6c0-2.4,1.9-4.4,4.4-4.4c2.4,0,4.4,1.9,4.4,4.4v27.6h16.1c2.2,0,4,1.8,4,4s-1.8,4-4,4h-20.5
			c-2.4,0-4.4-1.9-4.4-4.4V187.6z"/>
		<path class="st9" d="M420,187.6c0-2.4,1.9-4.4,4.4-4.4s4.4,1.9,4.4,4.4v31.5c0,2.4-1.9,4.4-4.4,4.4s-4.4-1.9-4.4-4.4V187.6z"/>
		<path class="st9" d="M436.8,203.5v-0.1c0-11.2,8.9-20.5,21.1-20.5s21,9.1,21,20.3v0.1c0,11.2-8.9,20.5-21.1,20.5
			S436.8,214.7,436.8,203.5z M469.8,203.5v-0.1c0-6.8-5-12.4-12-12.4s-11.9,5.5-11.9,12.3v0.1c0,6.8,5,12.4,12,12.4
			C464.9,215.8,469.8,210.2,469.8,203.5z"/>
	</g>
	<path class="st6" d="M136.3,237.3v127.3h93.8c3.2,0,5.8,2.6,5.8,5.8v28.2h6.3V237.3H136.3z"/>
	<rect x="252.8" y="237.3" class="st6" width="108.7" height="59.7"/>
	<rect x="252.8" y="307.5" class="st6" width="108.7" height="59.7"/>
	<rect x="235.8" y="426.6" class="st6" width="109.8" height="6.1"/>
	<rect x="235.8" y="409.3" class="st6" width="145.4" height="6.1"/>
	<rect x="372.3" y="240.1" class="st6" width="96.3" height="6.1"/>
	<rect x="372.3" y="258.5" class="st6" width="103.4" height="6.1"/>
	<rect x="372.3" y="312" class="st6" width="96.3" height="6.1"/>
	<rect x="372.3" y="276.7" class="st6" width="105.2" height="6.1"/>
	<rect x="372.3" y="295" class="st6" width="76.7" height="6.1"/>
	<path class="st6" d="M461.3,407.2h26.2V381L461.3,407.2z M470.1,423.9h-25.5l-6.1,6.1h31.6V423.9z M421.2,447.3h55.6v-6.1h-49.5
		L421.2,447.3z"/>
</g>
</svg>
