<?xml version="1.0" encoding="utf-8"?>
<!-- Generator: Adobe Illustrator 18.1.1, SVG Export Plug-In . SVG Version: 6.00 Build 0)  -->
<!DOCTYPE svg PUBLIC "-//W3C//DTD SVG 1.1//EN" "http://www.w3.org/Graphics/SVG/1.1/DTD/svg11.dtd">
<svg version="1.1" id="Layer_1" xmlns="http://www.w3.org/2000/svg" xmlns:xlink="http://www.w3.org/1999/xlink" x="0px" y="0px"
	 viewBox="0 54 324 324" enable-background="new 0 54 324 324" xml:space="preserve">
<g>
	<path fill="#5BB5DD" d="M255.1,97.4c14.1,0,25.6,11.5,25.6,25.6v186.1c0,14.1-11.5,25.6-25.6,25.6H68.9
		c-14.1,0-25.6-11.5-25.6-25.6V123c0-14.1,11.5-25.6,25.6-25.6H255.1 M255.1,92.2H68.9c-17,0-30.8,13.8-30.8,30.8v186.1
		c0,17,13.8,30.8,30.8,30.8h186.2c17,0,30.8-13.8,30.8-30.8V123C285.9,106,272.1,92.2,255.1,92.2L255.1,92.2z"/>
</g>
<path fill="#FF00F9" d="M255.1,334.8H68.9c-14.1,0-25.6-11.5-25.6-25.6V123c0-14.1,11.5-25.6,25.6-25.6h186.2
	c14.1,0,25.6,11.5,25.6,25.6v186.2C280.7,323.3,269.2,334.8,255.1,334.8z"/>
<polygon fill="#E3FDFF" stroke="#5BB5DD" stroke-width="7" stroke-miterlimit="10" points="220.8,285.2 220.8,154.9 103.2,154.9 
	103.2,307.2 198.5,307.2 "/>
<polyline fill="none" stroke="#5BB5DD" stroke-width="7" stroke-linecap="round" stroke-miterlimit="10" points="220.7,285.2 
	198.5,285.2 198.5,307.2 "/>
<path fill="#FF00F9" stroke="#5BB5DD" stroke-width="7" stroke-miterlimit="10" d="M145.4,193.4l8.2-2.2l-8.2-2.2
	c-2.8-0.8-5.1-3-5.8-5.9l-2.2-8.2l-2.2,8.2c-0.8,2.9-3,5.1-5.9,5.9l-8.3,2.1l8.2,2.2c2.9,0.8,5.1,3,5.9,5.9l2.2,8.2l2.2-8.2
	C140.3,196.4,142.6,194.1,145.4,193.4z"/>
<line fill="none" stroke="#5BB5DD" stroke-width="7" stroke-miterlimit="10" x1="121" y1="229.2" x2="204.5" y2="229.2"/>
<line fill="none" stroke="#5BB5DD" stroke-width="7" stroke-miterlimit="10" x1="121" y1="242.9" x2="200.7" y2="242.9"/>
<line fill="none" stroke="#5BB5DD" stroke-width="7" stroke-miterlimit="10" x1="121" y1="256.6" x2="190.2" y2="256.6"/>
<line fill="none" stroke="#5BB5DD" stroke-width="7" stroke-miterlimit="10" x1="121" y1="270.3" x2="204.5" y2="270.3"/>
<line fill="none" stroke="#5BB5DD" stroke-width="7" stroke-miterlimit="10" x1="121" y1="283.9" x2="189.5" y2="283.9"/>
</svg>
