<?xml version="1.0" encoding="utf-8"?>
<!-- Generator: Adobe Illustrator 22.1.0, SVG Export Plug-In . SVG Version: 6.00 Build 0)  -->
<!DOCTYPE svg PUBLIC "-//W3C//DTD SVG 1.1//EN" "http://www.w3.org/Graphics/SVG/1.1/DTD/svg11.dtd">
<svg version="1.1" id="Layer_1" xmlns="http://www.w3.org/2000/svg" xmlns:xlink="http://www.w3.org/1999/xlink" x="0px" y="0px"
	 viewBox="0 0 612 612" style="enable-background:new 0 0 612 612;" xml:space="preserve">
<style type="text/css">
	.st0{fill:#5BB5DD;}
	.st1{fill:#FF00F9;}
	.st2{fill:#0DF4FF;}
	.st3{font-family:'GothamRounded-Bold';}
	.st4{font-size:51.9992px;}
	.st5{fill:none;stroke:#FF00F9;stroke-width:1.4;stroke-linejoin:round;stroke-miterlimit:10;}
	.st6{fill:none;stroke:#FF00F9;stroke-width:1.4;stroke-linecap:round;stroke-linejoin:round;stroke-miterlimit:10;}
	.st7{fill:none;stroke:#0DF4FF;stroke-width:1.4;stroke-miterlimit:10;}
	.st8{font-size:49.1759px;}
</style>
<g>
	<path class="st0" d="M481.9,81.9c26.6,0,48.4,21.7,48.4,48.4v351.5c0,26.6-21.7,48.4-48.4,48.4H130.1c-26.6,0-48.4-21.7-48.4-48.4
		V130.2c0-26.6,21.7-48.4,48.4-48.4h351.8 M481.9,72.1H130.1C98,72.1,72,98.1,72,130.2v351.5c0,32.1,26.1,58.2,58.2,58.2h351.7
		c32.1,0,58.2-26.1,58.2-58.2V130.2C540,98.1,514,72.1,481.9,72.1L481.9,72.1z"/>
</g>
<path class="st1" d="M481.9,530.2H130.1c-26.6,0-48.4-21.7-48.4-48.4V130.1c0-26.6,21.7-48.4,48.4-48.4h351.7
	c26.6,0,48.4,21.7,48.4,48.4v351.7C530.2,508.5,508.5,530.2,481.9,530.2z"/>
<path class="st2" d="M365.7,141.4H168.1c-4.8,0-8.8,4-8.8,8.8v353.4c0,4.8,4,8.8,8.8,8.8h269.1c4.8,0,8.8-4,8.8-8.8v-282
	L365.7,141.4z"/>
<text transform="matrix(1 0 0 1 139.3618 492.0791)" class="st2 st3 st4">PDF</text>
<path class="st5" d="M365.7,141.4H168.1c-4.8,0-8.8,4-8.8,8.8v353.4c0,4.8,4,8.8,8.8,8.8h269.1c4.8,0,8.8-4,8.8-8.8v-282
	L365.7,141.4z"/>
<path class="st1" d="M265.8,497.7H132.6c-2,0-3.6-1.6-3.6-3.6v-58.6c0-2,1.6-3.6,3.6-3.6h133.2c2,0,3.6,1.6,3.6,3.6v58.6
	C269.4,496.1,267.8,497.7,265.8,497.7z"/>
<path class="st6" d="M374.5,221.6h71.4l-80.2-80.2v71.4C365.7,217.7,369.6,221.6,374.5,221.6z"/>
<path class="st7" d="M265.8,497.7H132.6c-2,0-3.6-1.6-3.6-3.6v-58.6c0-2,1.6-3.6,3.6-3.6h133.2c2,0,3.6,1.6,3.6,3.6v58.6
	C269.4,496.1,267.8,497.7,265.8,497.7z"/>
<g>
	<g>
		<text transform="matrix(1 0 0 1 147.4053 483.1074)" class="st2 st3 st8">PDF</text>
	</g>
</g>
</svg>
