<?xml version="1.0" encoding="utf-8"?>
<!-- Generator: Adobe Illustrator 22.1.0, SVG Export Plug-In . SVG Version: 6.00 Build 0)  -->
<!DOCTYPE svg PUBLIC "-//W3C//DTD SVG 1.1//EN" "http://www.w3.org/Graphics/SVG/1.1/DTD/svg11.dtd">
<svg version="1.1" id="Layer_1" xmlns="http://www.w3.org/2000/svg" xmlns:xlink="http://www.w3.org/1999/xlink" x="0px" y="0px"
	 viewBox="0 0 324 324" style="enable-background:new 0 0 324 324;" xml:space="preserve">
<style type="text/css">
	.st0{fill:#5BB5DD;}
	.st1{fill:#FF00F9;}
	.st2{fill:#E3FDFF;stroke:#5BB5DD;stroke-width:7;stroke-miterlimit:10;}
	.st3{fill:none;stroke:#5BB5DD;stroke-width:7;stroke-linecap:round;stroke-miterlimit:10;}
	.st4{fill:#FF00F9;stroke:#5BB5DD;stroke-width:7;stroke-miterlimit:10;}
	.st5{fill:none;stroke:#5BB5DD;stroke-width:7;stroke-miterlimit:10;}
	.st6{fill:#0DF4FF;}
	.st7{fill:none;stroke:#FF00F9;stroke-width:1.4;stroke-linejoin:round;stroke-miterlimit:10;}
	.st8{fill:none;stroke:#FF00F9;stroke-width:1.4;stroke-linecap:round;stroke-linejoin:round;stroke-miterlimit:10;}
	.st9{fill:none;stroke:#0DF4FF;stroke-width:1.4;stroke-miterlimit:10;}
	.st10{font-family:'GothamRounded-Bold';}
	.st11{font-size:27.2521px;}
</style>
<g>
	<path class="st0" d="M255.1,43.4c14.1,0,25.6,11.5,25.6,25.6v186.1c0,14.1-11.5,25.6-25.6,25.6H68.9c-14.1,0-25.6-11.5-25.6-25.6
		V69c0-14.1,11.5-25.6,25.6-25.6H255.1 M255.1,38.2H68.9c-17,0-30.8,13.8-30.8,30.8v186.1c0,17,13.8,30.8,30.8,30.8h186.2
		c17,0,30.8-13.8,30.8-30.8V69C285.9,52,272.1,38.2,255.1,38.2L255.1,38.2z"/>
</g>
<path class="st1" d="M255.1,280.8H68.9c-14.1,0-25.6-11.5-25.6-25.6V69c0-14.1,11.5-25.6,25.6-25.6h186.2
	c14.1,0,25.6,11.5,25.6,25.6v186.2C280.7,269.3,269.2,280.8,255.1,280.8z"/>
<polygon class="st2" points="220.8,241.2 220.8,110.9 103.2,110.9 103.2,263.2 198.5,263.2 "/>
<polyline class="st3" points="220.7,241.2 198.5,241.2 198.5,263.2 "/>
<path class="st4" d="M145.4,149.4l8.2-2.2l-8.2-2.2c-2.8-0.8-5.1-3-5.8-5.9l-2.2-8.2l-2.2,8.2c-0.8,2.9-3,5.1-5.9,5.9l-8.3,2.1
	l8.2,2.2c2.9,0.8,5.1,3,5.9,5.9l2.2,8.2l2.2-8.2C140.3,152.4,142.6,150.1,145.4,149.4z"/>
<line class="st5" x1="121" y1="185.2" x2="204.5" y2="185.2"/>
<line class="st5" x1="121" y1="198.9" x2="200.7" y2="198.9"/>
<line class="st5" x1="121" y1="212.6" x2="190.2" y2="212.6"/>
<line class="st5" x1="121" y1="226.3" x2="204.5" y2="226.3"/>
<line class="st5" x1="121" y1="239.9" x2="189.5" y2="239.9"/>
<path class="st6" d="M195.7,67.9H86.1c-2.7,0-4.9,2.2-4.9,4.9v195.9c0,2.7,2.2,4.9,4.9,4.9h149.1c2.7,0,4.9-2.2,4.9-4.9V112.3
	L195.7,67.9z"/>
<path class="st7" d="M195.7,67.9H86.1c-2.7,0-4.9,2.2-4.9,4.9v195.9c0,2.7,2.2,4.9,4.9,4.9h149.1c2.7,0,4.9-2.2,4.9-4.9V112.3
	L195.7,67.9z"/>
<path class="st1" d="M138.5,265.3H68.3c-2.1,0-3.8-1.7-3.8-3.8v-28.8c0-2.1,1.7-3.8,3.8-3.8h70.2c2.1,0,3.8,1.7,3.8,3.8v28.8
	C142.3,263.6,140.6,265.3,138.5,265.3z"/>
<path class="st8" d="M200.5,112.3h39.6l-44.5-44.5v39.6C195.7,110.1,197.9,112.3,200.5,112.3z"/>
<path class="st9" d="M138.5,265.3H68.3c-2.1,0-3.8-1.7-3.8-3.8v-28.8c0-2.1,1.7-3.8,3.8-3.8h70.2c2.1,0,3.8,1.7,3.8,3.8v28.8
	C142.3,263.6,140.6,265.3,138.5,265.3z"/>
<text transform="matrix(1 0 0 1 74.7157 257.2375)" class="st6 st10 st11">PDF</text>
</svg>
