<?xml version="1.0" encoding="utf-8"?>
<!-- Generator: Adobe Illustrator 22.1.0, SVG Export Plug-In . SVG Version: 6.00 Build 0)  -->
<!DOCTYPE svg PUBLIC "-//W3C//DTD SVG 1.1//EN" "http://www.w3.org/Graphics/SVG/1.1/DTD/svg11.dtd">
<svg version="1.1" id="Layer_1" xmlns="http://www.w3.org/2000/svg" xmlns:xlink="http://www.w3.org/1999/xlink" x="0px" y="0px"
	 viewBox="0 0 612 612" style="enable-background:new 0 0 612 612;" xml:space="preserve">
<style type="text/css">
	.st0{fill:#5BB5DD;}
	.st1{opacity:0.32;fill:#FF00F9;enable-background:new    ;}
	.st2{fill:#F9E4D7;}
	.st3{fill:#0DF4FF;}
	.st4{font-family:'GothamRounded-Bold';}
	.st5{font-size:51.9992px;}
	.st6{enable-background:new    ;}
	.st7{fill:none;stroke:#0DF4FF;stroke-width:1.4;stroke-linejoin:round;stroke-miterlimit:10;}
	.st8{fill:#FF00F9;}
	.st9{fill:none;stroke:#0DF4FF;stroke-width:1.4;stroke-linecap:round;stroke-linejoin:round;stroke-miterlimit:10;}
	.st10{fill:none;stroke:#0DF4FF;stroke-width:1.4;stroke-miterlimit:10;}
</style>
<g>
	<path class="st0" d="M481.9,81.9c26.6,0,48.4,21.7,48.4,48.4v351.5c0,26.6-21.7,48.4-48.4,48.4H130.1c-26.6,0-48.4-21.7-48.4-48.4
		V130.2c0-26.6,21.7-48.4,48.4-48.4h351.8 M481.9,72.1H130.1C98,72.1,72,98.1,72,130.2v351.5c0,32.1,26.1,58.2,58.2,58.2h351.7
		c32.1,0,58.2-26.1,58.2-58.2V130.2C540,98.1,514,72.1,481.9,72.1L481.9,72.1z"/>
</g>
<path class="st1" d="M481.9,530.2H130.1c-26.6,0-48.4-21.7-48.4-48.4V130.1c0-26.6,21.7-48.4,48.4-48.4h351.7
	c26.6,0,48.4,21.7,48.4,48.4v351.7C530.2,508.5,508.5,530.2,481.9,530.2z"/>
<path class="st2" d="M365.7,121.4H168.1c-4.8,0-8.8,4-8.8,8.8v353.4c0,4.8,4,8.8,8.8,8.8h269.1c4.8,0,8.8-4,8.8-8.8v-282
	L365.7,121.4z"/>
<text transform="matrix(1 0 0 1 139.3618 472.0791)" class="st3 st4 st5">PDF</text>
<g class="st6">
	<path class="st3" d="M172.1,234.2c0-2.7,2.2-4.9,4.9-4.9h15.4c5.6,0,10,1.6,12.9,4.5c2.5,2.5,3.8,6,3.8,10.2v0.1
		c0,7-3.5,11.3-8.9,13.5l6.8,8.3c1,1.2,1.6,2.2,1.6,3.7c0,2.7-2.3,4.5-4.6,4.5c-2.2,0-3.7-1.1-4.8-2.5l-9.5-12.1h-7.8v9.7
		c0,2.7-2.2,4.9-4.9,4.9s-4.9-2.2-4.9-4.9V234.2z M191.8,250.9c4.8,0,7.5-2.5,7.5-6.3v-0.1c0-4.2-2.9-6.3-7.7-6.3h-9.7v12.8H191.8z"
		/>
	<path class="st3" d="M218,268.8v-34.7c0-2.7,2.2-4.9,4.9-4.9h24.6c2.4,0,4.4,2,4.4,4.4s-2,4.3-4.4,4.3h-19.8v9h16.9
		c2.4,0,4.4,2,4.4,4.4s-2,4.3-4.4,4.3h-16.9v9.3h20.1c2.4,0,4.4,2,4.4,4.4s-2,4.3-4.4,4.3h-24.9C220.1,273.7,218,271.6,218,268.8z"
		/>
	<path class="st3" d="M259.6,269c-1.1-0.8-1.8-2.2-1.8-3.7c0-2.5,2-4.5,4.6-4.5c1.3,0,2.2,0.4,2.8,0.9c3.4,2.5,7,4,11.4,4
		c4,0,6.4-1.6,6.4-4.2v-0.1c0-2.5-1.5-3.7-9-5.6c-9-2.3-14.7-4.8-14.7-13.6v-0.1c0-8.1,6.5-13.4,15.6-13.4c5.4,0,10.1,1.4,14.1,3.9
		c1.1,0.6,2.2,2,2.2,3.9c0,2.5-2,4.5-4.6,4.5c-1,0-1.7-0.3-2.5-0.7c-3.2-1.9-6.3-3-9.3-3c-3.7,0-5.7,1.7-5.7,3.9v0.1
		c0,2.9,1.9,3.9,9.6,5.8c9,2.3,14.1,5.6,14.1,13.3v0.1c0,8.8-6.7,13.8-16.3,13.8C270.5,274.4,264.6,272.6,259.6,269z"/>
	<path class="st3" d="M300.4,254.7v-20.9c0-2.7,2.2-4.9,4.9-4.9c2.7,0,4.9,2.2,4.9,4.9v20.6c0,7.2,3.6,11,9.6,11s9.6-3.6,9.6-10.7
		v-20.9c0-2.7,2.2-4.9,4.9-4.9s4.9,2.2,4.9,4.9v20.6c0,13.5-7.6,20.1-19.5,20.1S300.4,267.8,300.4,254.7z"/>
	<path class="st3" d="M349.1,233.9c0-2.7,2.2-4.9,4.9-4.9h1.1c2.1,0,3.6,1.1,4.4,2.5l11.8,19.2l11.9-19.3c1-1.7,2.4-2.5,4.4-2.5h1.1
		c2.7,0,4.9,2.2,4.9,4.9v35.3c0,2.7-2.2,4.9-4.9,4.9c-2.7,0-4.8-2.2-4.8-4.9v-22.2l-8.6,13.2c-1,1.5-2.3,2.5-4.1,2.5s-3-1-4.1-2.5
		l-8.4-13v22.1c0,2.7-2.2,4.8-4.8,4.8s-4.8-2.1-4.8-4.8V233.9z"/>
	<path class="st3" d="M404.2,268.8v-34.7c0-2.7,2.2-4.9,4.9-4.9h24.6c2.4,0,4.4,2,4.4,4.4s-2,4.3-4.4,4.3h-19.8v9h16.9
		c2.4,0,4.4,2,4.4,4.4s-2,4.3-4.4,4.3h-16.9v9.3H434c2.4,0,4.4,2,4.4,4.4s-2,4.3-4.4,4.3h-24.9C406.4,273.7,404.2,271.6,404.2,268.8
		z"/>
</g>
<path class="st7" d="M365.7,121.4H168.1c-4.8,0-8.8,4-8.8,8.8v353.4c0,4.8,4,8.8,8.8,8.8h269.1c4.8,0,8.8-4,8.8-8.8v-282
	L365.7,121.4z"/>
<path class="st8" d="M265.8,477.7H132.6c-2,0-3.6-1.6-3.6-3.6v-58.6c0-2,1.6-3.6,3.6-3.6h133.2c2,0,3.6,1.6,3.6,3.6v58.6
	C269.4,476.1,267.8,477.7,265.8,477.7z"/>
<path class="st9" d="M374.5,201.6h71.4l-80.2-80.2v71.4C365.7,197.7,369.6,201.6,374.5,201.6z"/>
<path class="st10" d="M265.8,477.7H132.6c-2,0-3.6-1.6-3.6-3.6v-58.6c0-2,1.6-3.6,3.6-3.6h133.2c2,0,3.6,1.6,3.6,3.6v58.6
	C269.4,476.1,267.8,477.7,265.8,477.7z"/>
<g>
	<g>
		<g class="st6">
			<path class="st3" d="M151.5,432.5c0-2.1,1.7-3.8,3.8-3.8h10.3c8.2,0,13.2,4.9,13.2,11.9v0.1c0,8-6.2,12.1-13.9,12.1h-5.8v6.8
				c0,2.1-1.7,3.8-3.8,3.8s-3.8-1.7-3.8-3.8V432.5z M165.1,446c3.8,0,6-2.3,6-5.2v-0.1c0-3.4-2.4-5.2-6.1-5.2h-5.9V446H165.1z"/>
			<path class="st3" d="M184.4,432.5c0-2.1,1.7-3.8,3.8-3.8h9.6c10.8,0,18.3,7.4,18.3,17.1v0.1c0,9.7-7.5,17.2-18.3,17.2h-9.6
				c-2.1,0-3.8-1.7-3.8-3.8V432.5z M197.8,456.3c6.2,0,10.4-4.2,10.4-10.3v-0.1c0-6.1-4.2-10.4-10.4-10.4H192v20.8H197.8z"/>
			<path class="st3" d="M222.8,432.5c0-2.1,1.7-3.8,3.8-3.8h19.3c1.9,0,3.4,1.5,3.4,3.4s-1.5,3.4-3.4,3.4h-15.5v7.3h13.3
				c1.9,0,3.4,1.5,3.4,3.4s-1.5,3.4-3.4,3.4h-13.3v9.8c0,2.1-1.7,3.8-3.8,3.8s-3.8-1.7-3.8-3.8V432.5z"/>
		</g>
	</g>
</g>
<rect x="183.8" y="147.6" class="st8" width="105.4" height="6.1"/>
<rect x="322.8" y="470.6" class="st8" width="105.4" height="6.1"/>
<rect x="183.8" y="166.6" class="st8" width="142.4" height="6.1"/>
<rect x="183.8" y="204.7" class="st8" width="74.9" height="6.1"/>
<rect x="183.8" y="291.7" class="st8" width="63.5" height="6.1"/>
<rect x="196.5" y="312" class="st8" width="209.3" height="6.1"/>
<rect x="196.5" y="330.4" class="st8" width="224.7" height="6.1"/>
<path class="st8" d="M178.1,315.1l2.5-0.9c1.1-0.4,2-1.3,2.4-2.4l0.9-2.5l0.9,2.5c0.4,1.1,1.3,2,2.4,2.4l2.5,0.9l-2.5,0.9
	c-1.1,0.4-2,1.3-2.4,2.4l-0.9,2.5l-0.9-2.5c-0.4-1.1-1.3-2-2.4-2.4L178.1,315.1z"/>
<rect x="196.5" y="383.9" class="st8" width="209.3" height="6.1"/>
<rect x="196.5" y="401.3" class="st8" width="224.7" height="6.1"/>
<path class="st8" d="M178.1,387l2.5-0.9c1.1-0.4,2-1.3,2.4-2.4l0.9-2.5l0.9,2.5c0.4,1.1,1.3,2,2.4,2.4l2.5,0.9l-2.5,0.9
	c-1.1,0.4-2,1.3-2.4,2.4l-0.9,2.5l-0.9-2.5c-0.4-1.1-1.3-2-2.4-2.4L178.1,387z"/>
<rect x="196.5" y="348.6" class="st8" width="228.5" height="6.1"/>
<rect x="196.5" y="366.9" class="st8" width="166.6" height="6.1"/>
<rect x="273.6" y="418.6" class="st8" width="145.4" height="6.1"/>
<rect x="273.6" y="435.9" class="st8" width="109.8" height="6.1"/>
<path class="st8" d="M178.1,351.6l2.5-0.9c1.1-0.4,2-1.3,2.4-2.4l0.9-2.5l0.9,2.5c0.4,1.1,1.3,2,2.4,2.4l2.5,0.9l-2.5,0.9
	c-1.1,0.4-2,1.3-2.4,2.4l-0.9,2.5l-0.9-2.5c-0.4-1.1-1.3-2-2.4-2.4L178.1,351.6z"/>
</svg>
