<?xml version="1.0" encoding="utf-8"?>
<!-- Generator: Adobe Illustrator 22.1.0, SVG Export Plug-In . SVG Version: 6.00 Build 0)  -->
<!DOCTYPE svg PUBLIC "-//W3C//DTD SVG 1.1//EN" "http://www.w3.org/Graphics/SVG/1.1/DTD/svg11.dtd">
<svg version="1.1" id="Layer_1" xmlns="http://www.w3.org/2000/svg" xmlns:xlink="http://www.w3.org/1999/xlink" x="0px" y="0px"
	 viewBox="0 0 612 792" style="enable-background:new 0 0 612 792;" xml:space="preserve">
<style type="text/css">
	.st0{fill:#5BB5DD;}
	.st1{opacity:0.32;fill:#FF00F9;enable-background:new    ;}
	.st2{fill:#F9E4D7;}
	.st3{fill:#0DF4FF;}
	.st4{font-family:'GothamRounded-Bold';}
	.st5{font-size:67.1176px;}
	.st6{fill:#FF00F9;}
	.st7{fill:none;stroke:#0DF4FF;stroke-width:1.4;stroke-miterlimit:10;}
	.st8{font-size:51.9992px;}
	.st9{letter-spacing:-1;}
</style>
<g>
	<path class="st0" d="M481.9,171.9c26.6,0,48.4,21.7,48.4,48.4v351.5c0,26.6-21.7,48.4-48.4,48.4H130.1c-26.6,0-48.4-21.7-48.4-48.4
		V220.2c0-26.6,21.7-48.4,48.4-48.4h351.8 M481.9,162.1H130.1c-32.1,0-58.1,26-58.1,58.1v351.5c0,32.1,26.1,58.2,58.2,58.2h351.7
		c32.1,0,58.2-26.1,58.2-58.2V220.2C540,188.1,514,162.1,481.9,162.1L481.9,162.1z"/>
</g>
<path class="st1" d="M481.9,620.2H130.1c-26.6,0-48.4-21.7-48.4-48.4V220.1c0-26.6,21.7-48.4,48.4-48.4h351.7
	c26.6,0,48.4,21.7,48.4,48.4v351.7C530.2,598.5,508.5,620.2,481.9,620.2z"/>
<path class="st2" d="M370.2,200.7h-209c-5.1,0-9.3,4.2-9.3,9.3v373.7c0,5.1,4.2,9.3,9.3,9.3h284.6c5.1,0,9.3-4.2,9.3-9.3V285.6
	L370.2,200.7z"/>
<text transform="matrix(1 0 0 1 159.8267 361.8244)" class="st3 st4 st5">RESUME</text>
<path class="st3" d="M455.7,285.5c0-0.1,0-0.1,0-0.2c0,0,0,0,0-0.1c0-0.1-0.1-0.1-0.1-0.2l-84.8-84.8c-0.1-0.1-0.1-0.1-0.2-0.1
	c0,0,0,0-0.1,0c-0.1,0-0.1,0-0.2,0c0,0,0,0,0,0h-209c-5.5,0-10,4.5-10,10v373.7c0,5.5,4.5,10,10,10h284.6c5.5,0,10-4.5,10-10
	L455.7,285.5C455.7,285.5,455.7,285.5,455.7,285.5z M370.9,202.4l82.4,82.4h-73.9c-4.7,0-8.6-3.8-8.6-8.6V202.4z M445.7,592.3H161.2
	c-4.7,0-8.6-3.8-8.6-8.6V210c0-4.7,3.8-8.6,8.6-8.6h208.3v74.8c0,5.5,4.5,10,10,10h74.8v297.5C454.3,588.5,450.5,592.3,445.7,592.3z
	"/>
<path class="st6" d="M264.6,577.5H123.7c-2.1,0-3.8-1.7-3.8-3.8v-62c0-2.1,1.7-3.8,3.8-3.8h140.9c2.1,0,3.8,1.7,3.8,3.8v62
	C268.4,575.8,266.7,577.5,264.6,577.5z"/>
<path class="st7" d="M264.6,577.5H123.7c-2.1,0-3.8-1.7-3.8-3.8v-62c0-2.1,1.7-3.8,3.8-3.8h140.9c2.1,0,3.8,1.7,3.8,3.8v62
	C268.4,575.8,266.7,577.5,264.6,577.5z"/>
<text transform="matrix(1 0 0 1 139.3618 562.0791)" class="st3 st4 st8 st9">PDF</text>
<rect x="177.8" y="228.5" class="st6" width="111.5" height="6.5"/>
<rect x="324.8" y="570" class="st6" width="111.5" height="6.5"/>
<rect x="177.8" y="248.6" class="st6" width="150.6" height="6.5"/>
<rect x="177.8" y="288.8" class="st6" width="79.2" height="6.5"/>
<rect x="177.8" y="380.8" class="st6" width="67.1" height="6.5"/>
<rect x="191.3" y="402.3" class="st6" width="221.3" height="6.5"/>
<rect x="191.3" y="421.7" class="st6" width="237.6" height="6.5"/>
<path class="st6" d="M171.8,405.6l2.6-1c1.2-0.4,2.1-1.4,2.5-2.5l1-2.6l1,2.6c0.4,1.2,1.4,2.1,2.5,2.5l2.6,1l-2.6,1
	c-1.2,0.4-2.1,1.4-2.5,2.5l-1,2.6l-1-2.6c-0.4-1.2-1.4-2.1-2.5-2.5L171.8,405.6z"/>
<rect x="191.3" y="478.3" class="st6" width="221.3" height="6.5"/>
<rect x="191.3" y="496.7" class="st6" width="237.6" height="6.5"/>
<path class="st6" d="M171.8,481.6l2.6-1c1.2-0.4,2.1-1.4,2.5-2.5l1-2.6l1,2.6c0.4,1.2,1.4,2.1,2.5,2.5l2.6,1l-2.6,1
	c-1.2,0.4-2.1,1.4-2.5,2.5l-1,2.6l-1-2.6c-0.4-1.2-1.4-2.1-2.5-2.5L171.8,481.6z"/>
<rect x="191.3" y="441" class="st6" width="241.6" height="6.5"/>
<rect x="191.3" y="460.3" class="st6" width="176.2" height="6.5"/>
<rect x="272.8" y="515" class="st6" width="153.7" height="6.5"/>
<rect x="272.8" y="533.3" class="st6" width="116.1" height="6.5"/>
<path class="st6" d="M171.8,444.2l2.6-1c1.2-0.4,2.1-1.4,2.5-2.5l1-2.6l1,2.6c0.4,1.2,1.4,2.1,2.5,2.5l2.6,1l-2.6,1
	c-1.2,0.4-2.1,1.4-2.5,2.5l-1,2.6l-1-2.6c-0.4-1.2-1.4-2.1-2.5-2.5L171.8,444.2z"/>
</svg>
