<?xml version="1.0" encoding="utf-8"?>
<!-- Generator: Adobe Illustrator 18.1.1, SVG Export Plug-In . SVG Version: 6.00 Build 0)  -->
<!DOCTYPE svg PUBLIC "-//W3C//DTD SVG 1.1//EN" "http://www.w3.org/Graphics/SVG/1.1/DTD/svg11.dtd">
<svg version="1.1" id="Layer_1" xmlns="http://www.w3.org/2000/svg" xmlns:xlink="http://www.w3.org/1999/xlink" x="0px" y="0px"
	 viewBox="0 54 324 324" enable-background="new 0 54 324 324" xml:space="preserve">
<g>
	<path fill="#5BB5DD" d="M255.1,97.4c14.1,0,25.6,11.5,25.6,25.6v186.1c0,14.1-11.5,25.6-25.6,25.6H68.9
		c-14.1,0-25.6-11.5-25.6-25.6V123c0-14.1,11.5-25.6,25.6-25.6H255.1 M255.1,92.2H68.9c-17,0-30.8,13.8-30.8,30.8v186.1
		c0,17,13.8,30.8,30.8,30.8h186.2c17,0,30.8-13.8,30.8-30.8V123C285.9,106,272.1,92.2,255.1,92.2L255.1,92.2z"/>
</g>
<path opacity="0.32" fill="#FF00F9" enable-background="new    " d="M255.1,334.8H68.9c-14.1,0-25.6-11.5-25.6-25.6V123
	c0-14.1,11.5-25.6,25.6-25.6h186.2c14.1,0,25.6,11.5,25.6,25.6v186.2C280.7,323.3,269.2,334.8,255.1,334.8z"/>
<polygon fill="#E3FDFF" stroke="#5BB5DD" stroke-width="7" stroke-miterlimit="10" points="220.8,270.2 220.8,139.9 103.2,139.9 
	103.2,292.2 198.5,292.2 "/>
<polyline fill="none" stroke="#5BB5DD" stroke-width="7" stroke-linecap="round" stroke-miterlimit="10" points="220.7,270.2 
	198.5,270.2 198.5,292.2 "/>
<path fill="#FF00F9" stroke="#5BB5DD" stroke-width="7" stroke-miterlimit="10" d="M145.4,178.4l8.2-2.2l-8.2-2.2
	c-2.8-0.8-5.1-3-5.8-5.9l-2.2-8.2l-2.2,8.2c-0.8,2.9-3,5.1-5.9,5.9l-8.3,2.1l8.2,2.2c2.9,0.8,5.1,3,5.9,5.9l2.2,8.2l2.2-8.2
	C140.3,181.4,142.6,179.1,145.4,178.4z"/>
<g enable-background="new    ">
	<path fill="#FF00F9" d="M99.2,303c0-0.9,0.7-1.6,1.6-1.6h4.9c1.8,0,3.2,0.5,4.1,1.4c0.8,0.8,1.2,1.9,1.2,3.2l0,0
		c0,2.2-1.1,3.6-2.8,4.3l2.2,2.6c0.3,0.4,0.5,0.7,0.5,1.2c0,0.9-0.7,1.4-1.5,1.4c-0.7,0-1.2-0.3-1.5-0.8l-3-3.8h-2.5v3.1
		c0,0.9-0.7,1.6-1.6,1.6s-1.6-0.7-1.6-1.6C99.2,314,99.2,303,99.2,303z M105.5,308.4c1.5,0,2.4-0.8,2.4-2l0,0c0-1.3-0.9-2-2.5-2
		h-3.1v4.1h3.2V308.4z"/>
	<path fill="#FF00F9" d="M118.5,315.9c-3.3,0-5.7-2.3-5.7-5.6l0,0c0-3.1,2.2-5.6,5.4-5.6c3.6,0,5.2,3,5.2,5.2c0,0.9-0.6,1.5-1.4,1.5
		h-6.1c0.3,1.4,1.3,2.1,2.7,2.1c0.9,0,1.6-0.3,2.2-0.7c0.2-0.2,0.4-0.2,0.7-0.2c0.7,0,1.2,0.5,1.2,1.2c0,0.4-0.2,0.7-0.4,0.9
		C121.3,315.4,120.1,315.9,118.5,315.9z M120.5,309.4c-0.2-1.4-1-2.3-2.3-2.3s-2.1,0.9-2.3,2.3H120.5z"/>
	<path fill="#FF00F9" d="M125.5,314.6c-0.3-0.2-0.6-0.6-0.6-1.1c0-0.7,0.5-1.2,1.2-1.2c0.2,0,0.4,0.1,0.6,0.2c1,0.6,2.1,1,2.9,1
		c0.9,0,1.3-0.3,1.3-0.8l0,0c0-0.7-1.1-0.9-2.2-1.3c-1.5-0.4-3.2-1.2-3.2-3.3l0,0c0-2.2,1.8-3.4,4-3.4c1.1,0,2.3,0.3,3.4,0.8
		c0.4,0.2,0.7,0.6,0.7,1.2c0,0.7-0.5,1.2-1.2,1.2c-0.2,0-0.4,0-0.6-0.1c-0.9-0.4-1.7-0.7-2.3-0.7c-0.7,0-1.1,0.3-1.1,0.8l0,0
		c0,0.6,1,0.9,2.2,1.3c1.5,0.5,3.3,1.2,3.3,3.2l0,0c0,2.4-1.8,3.5-4.2,3.5C128.2,315.8,126.8,315.5,125.5,314.6z"/>
	<path fill="#FF00F9" d="M145.8,314.2c0,0.8-0.7,1.5-1.5,1.5c-0.9,0-1.5-0.7-1.5-1.5v-0.1c-0.7,0.9-1.6,1.7-3.2,1.7
		c-2.3,0-3.7-1.5-3.7-4v-5.6c0-0.9,0.7-1.5,1.5-1.5c0.9,0,1.5,0.7,1.5,1.5v4.6c0,1.5,0.7,2.2,1.9,2.2s1.9-0.7,1.9-2.2v-4.6
		c0-0.9,0.7-1.5,1.5-1.5c0.9,0,1.5,0.7,1.5,1.5v8H145.8z"/>
	<path fill="#FF00F9" d="M148.5,306.2c0-0.9,0.7-1.5,1.5-1.5c0.9,0,1.5,0.7,1.5,1.5v0.1c0.7-0.9,1.6-1.7,3.2-1.7
		c1.4,0,2.5,0.6,3.1,1.7c1-1.1,2.1-1.7,3.6-1.7c2.3,0,3.7,1.4,3.7,4v5.6c0,0.8-0.7,1.5-1.5,1.5s-1.5-0.7-1.5-1.5v-4.6
		c0-1.5-0.6-2.2-1.8-2.2s-1.9,0.8-1.9,2.2v4.6c0,0.8-0.7,1.5-1.5,1.5c-0.9,0-1.5-0.7-1.5-1.5v-4.6c0-1.5-0.6-2.2-1.8-2.2
		s-1.9,0.8-1.9,2.2v4.6c0,0.8-0.7,1.5-1.5,1.5c-0.9,0-1.5-0.7-1.5-1.5v-8H148.5z"/>
	<path fill="#FF00F9" d="M172.9,315.9c-3.3,0-5.7-2.3-5.7-5.6l0,0c0-3.1,2.2-5.6,5.4-5.6c3.6,0,5.2,3,5.2,5.2c0,0.9-0.6,1.5-1.4,1.5
		h-6.1c0.3,1.4,1.3,2.1,2.7,2.1c0.9,0,1.6-0.3,2.2-0.7c0.2-0.2,0.4-0.2,0.7-0.2c0.7,0,1.2,0.5,1.2,1.2c0,0.4-0.2,0.7-0.4,0.9
		C175.7,315.4,174.5,315.9,172.9,315.9z M174.9,309.4c-0.2-1.4-1-2.3-2.3-2.3s-2.1,0.9-2.3,2.3H174.9z"/>
	<path fill="#FF00F9" d="M186.6,303c0-0.9,0.7-1.6,1.6-1.6h4.2c3.4,0,5.4,2,5.4,4.9l0,0c0,3.3-2.6,5-5.7,5h-2.4v2.8
		c0,0.9-0.7,1.6-1.6,1.6c-0.9,0-1.6-0.7-1.6-1.6V303H186.6z M192.2,308.6c1.6,0,2.5-0.9,2.5-2.1l0,0c0-1.4-1-2.1-2.5-2.1h-2.4v4.3
		L192.2,308.6L192.2,308.6z"/>
	<path fill="#FF00F9" d="M200.1,303c0-0.9,0.7-1.6,1.6-1.6h4c4.5,0,7.5,3.1,7.5,7l0,0c0,4-3.1,7.1-7.5,7.1h-4
		c-0.9,0-1.6-0.7-1.6-1.6V303z M205.6,312.8c2.6,0,4.3-1.7,4.3-4.2l0,0c0-2.5-1.7-4.3-4.3-4.3h-2.4v8.5H205.6z"/>
	<path fill="#FF00F9" d="M215.9,303c0-0.9,0.7-1.6,1.6-1.6h7.9c0.8,0,1.4,0.6,1.4,1.4s-0.6,1.4-1.4,1.4H219v3h5.5
		c0.8,0,1.4,0.6,1.4,1.4s-0.6,1.4-1.4,1.4H219v4c0,0.9-0.7,1.6-1.6,1.6c-0.9,0-1.6-0.7-1.6-1.6v-11H215.9z"/>
</g>
<line fill="none" stroke="#5BB5DD" stroke-width="7" stroke-miterlimit="10" x1="121" y1="214.2" x2="204.5" y2="214.2"/>
<line fill="none" stroke="#5BB5DD" stroke-width="7" stroke-miterlimit="10" x1="121" y1="227.9" x2="200.7" y2="227.9"/>
<line fill="none" stroke="#5BB5DD" stroke-width="7" stroke-miterlimit="10" x1="121" y1="241.6" x2="190.2" y2="241.6"/>
<line fill="none" stroke="#5BB5DD" stroke-width="7" stroke-miterlimit="10" x1="121" y1="255.2" x2="204.5" y2="255.2"/>
<line fill="none" stroke="#5BB5DD" stroke-width="7" stroke-miterlimit="10" x1="121" y1="268.9" x2="189.5" y2="268.9"/>
</svg>
