<?xml version="1.0" encoding="utf-8"?>
<!-- Generator: Adobe Illustrator 22.1.0, SVG Export Plug-In . SVG Version: 6.00 Build 0)  -->
<!DOCTYPE svg PUBLIC "-//W3C//DTD SVG 1.1//EN" "http://www.w3.org/Graphics/SVG/1.1/DTD/svg11.dtd">
<svg version="1.1" id="Layer_1" xmlns="http://www.w3.org/2000/svg" xmlns:xlink="http://www.w3.org/1999/xlink" x="0px" y="0px"
	 viewBox="0 0 612 612" style="enable-background:new 0 0 612 612;" xml:space="preserve">
<style type="text/css">
	.st0{fill:#5BB5DD;}
	.st1{opacity:0.32;fill:#5BB5DD;enable-background:new    ;}
	.st2{fill:#F9E4D7;}
	.st3{fill:#FF00F9;}
	.st4{font-family:'GothamRounded-Bold';}
	.st5{font-size:67.1176px;}
	.st6{fill:none;stroke:#FF00F9;stroke-width:1.4;stroke-linejoin:round;stroke-miterlimit:10;}
	.st7{fill:#0DF4FF;}
	.st8{fill:none;stroke:#FF00F9;stroke-width:1.4;stroke-linecap:round;stroke-linejoin:round;stroke-miterlimit:10;}
	.st9{fill:none;stroke:#FF00F9;stroke-width:1.4;stroke-miterlimit:10;}
	.st10{font-size:51.9992px;}
	.st11{letter-spacing:-1;}
</style>
<g>
	<path class="st0" d="M481.9,81.9c26.6,0,48.4,21.7,48.4,48.4v351.5c0,26.6-21.7,48.4-48.4,48.4H130.1c-26.6,0-48.4-21.7-48.4-48.4
		V130.2c0-26.6,21.7-48.4,48.4-48.4h351.8 M481.9,72.1H130.1C98,72.1,72,98.1,72,130.2v351.5c0,32.1,26.1,58.2,58.2,58.2h351.7
		c32.1,0,58.2-26.1,58.2-58.2V130.2C540,98.1,514,72.1,481.9,72.1L481.9,72.1z"/>
</g>
<path class="st1" d="M481.9,530.2H130.1c-26.6,0-48.4-21.7-48.4-48.4V130.1c0-26.6,21.7-48.4,48.4-48.4h351.7
	c26.6,0,48.4,21.7,48.4,48.4v351.7C530.2,508.5,508.5,530.2,481.9,530.2z"/>
<path class="st2" d="M370.2,110.7h-209c-5.1,0-9.3,4.2-9.3,9.3v373.7c0,5.1,4.2,9.3,9.3,9.3h284.6c5.1,0,9.3-4.2,9.3-9.3V195.6
	L370.2,110.7z"/>
<text transform="matrix(1 0 0 1 159.8267 271.8244)" class="st3 st4 st5">RESUME</text>
<path class="st6" d="M370.2,110.7h-209c-5.1,0-9.3,4.2-9.3,9.3v373.7c0,5.1,4.2,9.3,9.3,9.3h284.6c5.1,0,9.3-4.2,9.3-9.3V195.6
	L370.2,110.7z"/>
<path class="st7" d="M264.6,487.5H123.7c-2.1,0-3.8-1.7-3.8-3.8v-62c0-2.1,1.7-3.8,3.8-3.8h140.9c2.1,0,3.8,1.7,3.8,3.8v62
	C268.4,485.8,266.7,487.5,264.6,487.5z"/>
<path class="st8" d="M379.5,195.6H455l-84.8-84.8v75.5C370.2,191.4,374.3,195.6,379.5,195.6z"/>
<path class="st9" d="M264.6,487.5H123.7c-2.1,0-3.8-1.7-3.8-3.8v-62c0-2.1,1.7-3.8,3.8-3.8h140.9c2.1,0,3.8,1.7,3.8,3.8v62
	C268.4,485.8,266.7,487.5,264.6,487.5z"/>
<g>
	<text transform="matrix(1 0 0 1 139.3618 472.0791)" class="st3 st4 st10 st11">PDF</text>
</g>
<rect x="177.8" y="138.5" class="st7" width="111.5" height="6.5"/>
<rect x="324.8" y="480" class="st7" width="111.5" height="6.5"/>
<rect x="177.8" y="158.6" class="st7" width="150.6" height="6.5"/>
<rect x="177.8" y="198.8" class="st7" width="79.2" height="6.5"/>
<rect x="177.8" y="290.8" class="st7" width="67.1" height="6.5"/>
<rect x="191.3" y="312.3" class="st7" width="221.3" height="6.5"/>
<rect x="191.3" y="331.7" class="st7" width="237.6" height="6.5"/>
<path class="st7" d="M171.8,315.6l2.6-1c1.2-0.4,2.1-1.4,2.5-2.5l1-2.6l1,2.6c0.4,1.2,1.4,2.1,2.5,2.5l2.6,1l-2.6,1
	c-1.2,0.4-2.1,1.4-2.5,2.5l-1,2.6l-1-2.6c-0.4-1.2-1.4-2.1-2.5-2.5L171.8,315.6z"/>
<rect x="191.3" y="388.3" class="st7" width="221.3" height="6.5"/>
<rect x="191.3" y="406.7" class="st7" width="237.6" height="6.5"/>
<path class="st7" d="M171.8,391.6l2.6-1c1.2-0.4,2.1-1.4,2.5-2.5l1-2.6l1,2.6c0.4,1.2,1.4,2.1,2.5,2.5l2.6,1l-2.6,1
	c-1.2,0.4-2.1,1.4-2.5,2.5l-1,2.6l-1-2.6c-0.4-1.2-1.4-2.1-2.5-2.5L171.8,391.6z"/>
<rect x="191.3" y="351" class="st7" width="241.6" height="6.5"/>
<rect x="191.3" y="370.3" class="st7" width="176.2" height="6.5"/>
<rect x="272.8" y="425" class="st7" width="153.7" height="6.5"/>
<rect x="272.8" y="443.3" class="st7" width="116.1" height="6.5"/>
<path class="st7" d="M171.8,354.2l2.6-1c1.2-0.4,2.1-1.4,2.5-2.5l1-2.6l1,2.6c0.4,1.2,1.4,2.1,2.5,2.5l2.6,1l-2.6,1
	c-1.2,0.4-2.1,1.4-2.5,2.5l-1,2.6l-1-2.6c-0.4-1.2-1.4-2.1-2.5-2.5L171.8,354.2z"/>
</svg>
