<?xml version="1.0" encoding="utf-8"?>
<!-- Generator: Adobe Illustrator 22.1.0, SVG Export Plug-In . SVG Version: 6.00 Build 0)  -->
<!DOCTYPE svg PUBLIC "-//W3C//DTD SVG 1.1//EN" "http://www.w3.org/Graphics/SVG/1.1/DTD/svg11.dtd">
<svg version="1.1" id="Layer_1" xmlns="http://www.w3.org/2000/svg" xmlns:xlink="http://www.w3.org/1999/xlink" x="0px" y="0px"
	 viewBox="0 0 612 612" style="enable-background:new 0 0 612 612;" xml:space="preserve">
<style type="text/css">
	.st0{fill:#5BB5DD;}
	.st1{opacity:0.32;fill:#FF00F9;enable-background:new    ;}
	.st2{fill:#F9E4D7;}
	.st3{fill:#0DF4FF;}
	.st4{font-family:'GothamRounded-Bold';}
	.st5{font-size:67.1176px;}
	.st6{fill:#FF00F9;}
	.st7{fill:none;stroke:#0DF4FF;stroke-width:1.4;stroke-miterlimit:10;}
	.st8{font-size:51.9992px;}
	.st9{letter-spacing:-1;}
</style>
<g>
	<path class="st0" d="M481.9,81.9c26.6,0,48.4,21.7,48.4,48.4v351.5c0,26.6-21.7,48.4-48.4,48.4H130.1c-26.6,0-48.4-21.7-48.4-48.4
		V130.2c0-26.6,21.7-48.4,48.4-48.4h351.8 M481.9,72.1H130.1C98,72.1,72,98.1,72,130.2v351.5c0,32.1,26.1,58.2,58.2,58.2h351.7
		c32.1,0,58.2-26.1,58.2-58.2V130.2C540,98.1,514,72.1,481.9,72.1L481.9,72.1z"/>
</g>
<path class="st1" d="M481.9,530.2H130.1c-26.6,0-48.4-21.7-48.4-48.4V130.1c0-26.6,21.7-48.4,48.4-48.4h351.7
	c26.6,0,48.4,21.7,48.4,48.4v351.7C530.2,508.5,508.5,530.2,481.9,530.2z"/>
<path class="st2" d="M370.2,110.7h-209c-5.1,0-9.3,4.2-9.3,9.3v373.7c0,5.1,4.2,9.3,9.3,9.3h284.6c5.1,0,9.3-4.2,9.3-9.3V195.6
	L370.2,110.7z"/>
<text transform="matrix(1 0 0 1 159.8267 271.8244)" class="st3 st4 st5">RESUME</text>
<path class="st3" d="M455.7,195.5c0-0.1,0-0.1,0-0.2c0,0,0,0,0-0.1c0-0.1-0.1-0.1-0.1-0.2l-84.8-84.8c-0.1-0.1-0.1-0.1-0.2-0.1
	c0,0,0,0-0.1,0c-0.1,0-0.1,0-0.2,0c0,0,0,0,0,0h-209c-5.5,0-10,4.5-10,10v373.7c0,5.5,4.5,10,10,10h284.6c5.5,0,10-4.5,10-10
	L455.7,195.5C455.7,195.5,455.7,195.5,455.7,195.5z M370.9,112.4l82.4,82.4h-73.9c-4.7,0-8.6-3.8-8.6-8.6V112.4z M445.7,502.3H161.2
	c-4.7,0-8.6-3.8-8.6-8.6V120c0-4.7,3.8-8.6,8.6-8.6h208.3v74.8c0,5.5,4.5,10,10,10h74.8v297.5C454.3,498.5,450.5,502.3,445.7,502.3z
	"/>
<path class="st6" d="M264.6,487.5H123.7c-2.1,0-3.8-1.7-3.8-3.8v-62c0-2.1,1.7-3.8,3.8-3.8h140.9c2.1,0,3.8,1.7,3.8,3.8v62
	C268.4,485.8,266.7,487.5,264.6,487.5z"/>
<path class="st7" d="M264.6,487.5H123.7c-2.1,0-3.8-1.7-3.8-3.8v-62c0-2.1,1.7-3.8,3.8-3.8h140.9c2.1,0,3.8,1.7,3.8,3.8v62
	C268.4,485.8,266.7,487.5,264.6,487.5z"/>
<text transform="matrix(1 0 0 1 139.3618 472.0791)" class="st3 st4 st8 st9">PDF</text>
<rect x="177.8" y="138.5" class="st6" width="111.5" height="6.5"/>
<rect x="324.8" y="480" class="st6" width="111.5" height="6.5"/>
<rect x="177.8" y="158.6" class="st6" width="150.6" height="6.5"/>
<rect x="177.8" y="198.8" class="st6" width="79.2" height="6.5"/>
<rect x="177.8" y="290.8" class="st6" width="67.1" height="6.5"/>
<rect x="191.3" y="312.3" class="st6" width="221.3" height="6.5"/>
<rect x="191.3" y="331.7" class="st6" width="237.6" height="6.5"/>
<path class="st6" d="M171.8,315.6l2.6-1c1.2-0.4,2.1-1.4,2.5-2.5l1-2.6l1,2.6c0.4,1.2,1.4,2.1,2.5,2.5l2.6,1l-2.6,1
	c-1.2,0.4-2.1,1.4-2.5,2.5l-1,2.6l-1-2.6c-0.4-1.2-1.4-2.1-2.5-2.5L171.8,315.6z"/>
<rect x="191.3" y="388.3" class="st6" width="221.3" height="6.5"/>
<rect x="191.3" y="406.7" class="st6" width="237.6" height="6.5"/>
<path class="st6" d="M171.8,391.6l2.6-1c1.2-0.4,2.1-1.4,2.5-2.5l1-2.6l1,2.6c0.4,1.2,1.4,2.1,2.5,2.5l2.6,1l-2.6,1
	c-1.2,0.4-2.1,1.4-2.5,2.5l-1,2.6l-1-2.6c-0.4-1.2-1.4-2.1-2.5-2.5L171.8,391.6z"/>
<rect x="191.3" y="351" class="st6" width="241.6" height="6.5"/>
<rect x="191.3" y="370.3" class="st6" width="176.2" height="6.5"/>
<rect x="272.8" y="425" class="st6" width="153.7" height="6.5"/>
<rect x="272.8" y="443.3" class="st6" width="116.1" height="6.5"/>
<path class="st6" d="M171.8,354.2l2.6-1c1.2-0.4,2.1-1.4,2.5-2.5l1-2.6l1,2.6c0.4,1.2,1.4,2.1,2.5,2.5l2.6,1l-2.6,1
	c-1.2,0.4-2.1,1.4-2.5,2.5l-1,2.6l-1-2.6c-0.4-1.2-1.4-2.1-2.5-2.5L171.8,354.2z"/>
</svg>
