<?xml version="1.0" encoding="utf-8"?>
<!-- Generator: Adobe Illustrator 22.1.0, SVG Export Plug-In . SVG Version: 6.00 Build 0)  -->
<!DOCTYPE svg PUBLIC "-//W3C//DTD SVG 1.1//EN" "http://www.w3.org/Graphics/SVG/1.1/DTD/svg11.dtd">
<svg version="1.1" id="Layer_1" xmlns="http://www.w3.org/2000/svg" xmlns:xlink="http://www.w3.org/1999/xlink" x="0px" y="0px"
	 viewBox="0 0 612 612" style="enable-background:new 0 0 612 612;" xml:space="preserve">
<style type="text/css">
	.st0{fill:#5BB5DD;}
	.st1{opacity:0.32;fill:#FF00F9;enable-background:new    ;}
	.st2{fill:#F9E4D7;}
	.st3{fill:#0DF4FF;}
	.st4{font-family:'GothamRounded-Bold';}
	.st5{font-size:51.9992px;}
	.st6{font-size:63.4734px;}
	.st7{fill:none;stroke:#0DF4FF;stroke-width:1.4;stroke-linejoin:round;stroke-miterlimit:10;}
	.st8{fill:#FF00F9;}
	.st9{fill:none;stroke:#0DF4FF;stroke-width:1.4;stroke-linecap:round;stroke-linejoin:round;stroke-miterlimit:10;}
	.st10{fill:none;stroke:#0DF4FF;stroke-width:1.4;stroke-miterlimit:10;}
	.st11{font-size:49.1759px;}
</style>
<g>
	<path class="st0" d="M481.9,81.9c26.6,0,48.4,21.7,48.4,48.4v351.5c0,26.6-21.7,48.4-48.4,48.4H130.1c-26.6,0-48.4-21.7-48.4-48.4
		V130.2c0-26.6,21.7-48.4,48.4-48.4h351.8 M481.9,72.1H130.1C98,72.1,72,98.1,72,130.2v351.5c0,32.1,26.1,58.2,58.2,58.2h351.7
		c32.1,0,58.2-26.1,58.2-58.2V130.2C540,98.1,514,72.1,481.9,72.1L481.9,72.1z"/>
</g>
<path class="st1" d="M481.9,530.2H130.1c-26.6,0-48.4-21.7-48.4-48.4V130.1c0-26.6,21.7-48.4,48.4-48.4h351.7
	c26.6,0,48.4,21.7,48.4,48.4v351.7C530.2,508.5,508.5,530.2,481.9,530.2z"/>
<path class="st2" d="M365.7,121.4H168.1c-4.8,0-8.8,4-8.8,8.8v353.4c0,4.8,4,8.8,8.8,8.8h269.1c4.8,0,8.8-4,8.8-8.8V201.6
	L365.7,121.4z"/>
<text transform="matrix(1 0 0 1 139.3618 472.0791)" class="st3 st4 st5">PDF</text>
<text transform="matrix(1 0 0 1 166.7588 273.7261)" class="st3 st4 st6">RESUME</text>
<path class="st7" d="M365.7,121.4H168.1c-4.8,0-8.8,4-8.8,8.8v353.4c0,4.8,4,8.8,8.8,8.8h269.1c4.8,0,8.8-4,8.8-8.8V201.6
	L365.7,121.4z"/>
<path class="st8" d="M265.8,477.7H132.6c-2,0-3.6-1.6-3.6-3.6v-58.6c0-2,1.6-3.6,3.6-3.6h133.2c2,0,3.6,1.6,3.6,3.6v58.6
	C269.4,476.1,267.8,477.7,265.8,477.7z"/>
<path class="st9" d="M374.5,201.6h71.4l-80.2-80.2v71.4C365.7,197.7,369.6,201.6,374.5,201.6z"/>
<path class="st10" d="M265.8,477.7H132.6c-2,0-3.6-1.6-3.6-3.6v-58.6c0-2,1.6-3.6,3.6-3.6h133.2c2,0,3.6,1.6,3.6,3.6v58.6
	C269.4,476.1,267.8,477.7,265.8,477.7z"/>
<g>
	<g>
		<text transform="matrix(1 0 0 1 147.4053 463.1074)" class="st3 st4 st11">PDF</text>
	</g>
</g>
<rect x="183.8" y="147.6" class="st8" width="105.4" height="6.1"/>
<rect x="322.8" y="470.6" class="st8" width="105.4" height="6.1"/>
<rect x="183.8" y="166.6" class="st8" width="142.4" height="6.1"/>
<rect x="183.8" y="204.7" class="st8" width="74.9" height="6.1"/>
<rect x="183.8" y="291.7" class="st8" width="63.5" height="6.1"/>
<rect x="196.5" y="312" class="st8" width="209.3" height="6.1"/>
<rect x="196.5" y="330.4" class="st8" width="224.7" height="6.1"/>
<path class="st8" d="M178.1,315.1l2.5-0.9c1.1-0.4,2-1.3,2.4-2.4l0.9-2.5l0.9,2.5c0.4,1.1,1.3,2,2.4,2.4l2.5,0.9l-2.5,0.9
	c-1.1,0.4-2,1.3-2.4,2.4l-0.9,2.5l-0.9-2.5c-0.4-1.1-1.3-2-2.4-2.4L178.1,315.1z"/>
<rect x="196.5" y="383.9" class="st8" width="209.3" height="6.1"/>
<rect x="196.5" y="401.3" class="st8" width="224.7" height="6.1"/>
<path class="st8" d="M178.1,387l2.5-0.9c1.1-0.4,2-1.3,2.4-2.4l0.9-2.5l0.9,2.5c0.4,1.1,1.3,2,2.4,2.4l2.5,0.9l-2.5,0.9
	c-1.1,0.4-2,1.3-2.4,2.4l-0.9,2.5l-0.9-2.5c-0.4-1.1-1.3-2-2.4-2.4L178.1,387z"/>
<rect x="196.5" y="348.6" class="st8" width="228.5" height="6.1"/>
<rect x="196.5" y="366.9" class="st8" width="166.6" height="6.1"/>
<rect x="273.6" y="418.6" class="st8" width="145.4" height="6.1"/>
<rect x="273.6" y="435.9" class="st8" width="109.8" height="6.1"/>
<path class="st8" d="M178.1,351.6l2.5-0.9c1.1-0.4,2-1.3,2.4-2.4l0.9-2.5l0.9,2.5c0.4,1.1,1.3,2,2.4,2.4l2.5,0.9l-2.5,0.9
	c-1.1,0.4-2,1.3-2.4,2.4l-0.9,2.5l-0.9-2.5c-0.4-1.1-1.3-2-2.4-2.4L178.1,351.6z"/>
</svg>
