<?xml version="1.0" encoding="utf-8"?>
<!-- Generator: Adobe Illustrator 22.1.0, SVG Export Plug-In . SVG Version: 6.00 Build 0)  -->
<!DOCTYPE svg PUBLIC "-//W3C//DTD SVG 1.1//EN" "http://www.w3.org/Graphics/SVG/1.1/DTD/svg11.dtd">
<svg version="1.1" id="Layer_1" xmlns="http://www.w3.org/2000/svg" xmlns:xlink="http://www.w3.org/1999/xlink" x="0px" y="0px"
	 viewBox="0 0 612 792" enable-background="new 0 0 612 792" xml:space="preserve">
<g>
	<path fill="#5BB5DD" d="M481.9,171.9c26.6,0,48.4,21.7,48.4,48.4v351.5c0,26.6-21.7,48.4-48.4,48.4H130.1
		c-26.6,0-48.4-21.7-48.4-48.4V220.2c0-26.6,21.7-48.4,48.4-48.4h351.8 M481.9,162.1H130.1c-32.1,0-58.1,26-58.1,58.1v351.5
		c0,32.1,26.1,58.2,58.2,58.2h351.7c32.1,0,58.2-26.1,58.2-58.2V220.2C540,188.1,514,162.1,481.9,162.1L481.9,162.1z"/>
</g>
<path opacity="0.32" fill="#5BB5DD" enable-background="new    " d="M481.9,620.2H130.1c-26.6,0-48.4-21.7-48.4-48.4V220.1
	c0-26.6,21.7-48.4,48.4-48.4h351.7c26.6,0,48.4,21.7,48.4,48.4v351.7C530.2,598.5,508.5,620.2,481.9,620.2z"/>
<line fill="none" stroke="#5BB5DD" stroke-width="7" stroke-miterlimit="10" x1="228.6" y1="396" x2="386.3" y2="396"/>
<g>
	<path fill="#F9E4D7" d="M455.4,263.4L455.4,263.4L171,339.5l0,0l-30.4,7.6c-15,4-25.3,17.6-25.3,33.1v129
		c0,14.4,13.7,24.9,27.5,21.2L269.5,497l0,0l204.4-54.7c13.5-3.6,22.8-15.8,22.8-29.8v-124c0-18.2-17.3-31.5-34.9-26.8L455.4,263.4z
		"/>
	<path fill="#FF00F9" d="M137.1,531.9L137.1,531.9c-12.5,0-22.6-10.2-22.6-22.6v-129c0-15.8,10.6-29.7,25.9-33.8l30.5-7.6
		l284.4-76.1l6.4-1.7c2.4-0.7,4.9-1,7.4-1c15.6,0,28.4,12.8,28.4,28.4v124c0,14.3-9.6,26.8-23.4,30.5l-204.4,54.7L143,531.1
		C141,531.6,139.1,531.9,137.1,531.9z M469.1,261.5c-2.4,0-4.7,0.3-7,0.9l-6.4,1.7l-284.4,76.1l-30.5,7.6
		c-14.6,3.9-24.8,17.2-24.8,32.4v129c0,11.7,9.5,21.2,21.2,21.2l0,0c1.8,0,3.7-0.2,5.5-0.7l126.7-33.4l204.4-54.7
		c13.1-3.5,22.3-15.5,22.3-29.1v-124C496,273.6,483.9,261.5,469.1,261.5z"/>
</g>
<g>
	<polygon fill="#0DF4FF" points="176.7,362.2 176.7,514.5 451.6,441.1 451.6,288.6 	"/>
	<path fill="#FF00F9" d="M176,515.5V361.7l0.5-0.1l275.8-73.8v153.9l-0.5,0.1L176,515.5z M177.4,362.8v150.8l273.5-73.1v-151
		L177.4,362.8z"/>
</g>
<g>
	<g>
		<g>
			<g>
				<path fill="#FF00F9" d="M217.2,406.2c-0.7-2.6-3-3.6-11-4.6c-7.7-1-14.9-3-17.1-10.9c-3-10.9,5-20.3,16.4-23.4
					c8.3-2.2,13.5-1.1,17.5,0.3c1.9,0.7,3.4,1.8,4.1,4.2c0.9,3.3-1.1,6.5-4.3,7.3c-1.2,0.3-2.4,0.3-3.5-0.1c-4.3-1.8-7.6-2.2-12-1.1
					c-5,1.3-7,4.9-6.3,7.6c0.8,2.8,3.2,3.5,11.3,4.5s14.6,3.2,16.8,10.9c3.1,11.2-5.2,20.5-16.4,23.6c-6.4,1.7-14.7,2.5-21.5-0.8
					c-1.6-0.7-3.1-2.2-3.6-4.3c-0.9-3.3,0.8-6.6,4.1-7.5c1.6-0.4,3.2,0,4.2,0.4c5.5,2.5,9.3,3.1,14.5,1.6
					C215.3,412.7,218.1,409.6,217.2,406.2z"/>
			</g>
			<g>
				<path fill="#FF00F9" d="M246.1,414.7c-3.9,1.1-6.8-1.2-6.8-6.4l-0.1-42.9c0-4,1.9-6.8,5-7.6l28.7-7.8c2.9-0.8,5.9,1,6.7,3.8
					c0.8,2.9-1,5.8-3.9,6.6l-24.9,6.7v11.7l18.6-5c2.9-0.8,5.9,0.9,6.7,3.8c0.8,2.9-1,5.8-3.9,6.5l-21.4,5.8V402l22.5-6.1
					c2.9-0.8,5.9,1,6.7,3.8c0.8,2.9-1,5.8-3.9,6.6L246.1,414.7z"/>
			</g>
			<g>
				<path fill="#FF00F9" d="M294.1,401.7c-3.9,1.1-6.8-1.2-6.8-6.4l-0.1-43.3c0-4,1.9-6.8,5-7.6c3.9-1.1,6.8,1.2,6.8,6.4l0.1,38.2
					l20.4-5.5c2.9-0.8,5.9,1,6.7,3.9c0.8,3.1-0.9,6-3.8,6.8L294.1,401.7z"/>
			</g>
			<g>
				<path fill="#FF00F9" d="M366.6,324.6c3-0.8,6,0.9,6.8,3.9s-0.9,6-3.9,6.8l-25.5,6.9v12.2l19.2-5.2c3-0.8,6,0.9,6.8,3.9
					s-0.9,6-3.9,6.8l-21.9,6v16.4c0,4-1.9,6.8-5,7.6c-3.9,1.1-6.8-1.2-6.8-6.4l-0.1-43.3c0-4,1.9-6.8,5-7.6L366.6,324.6z"/>
			</g>
			<g>
				<path fill="#FF00F9" d="M392.1,369.3c0,4-1.9,6.8-5,7.6c-3.9,1.1-6.8-1.2-6.8-6.4l-0.1-43.9c0-4,1.9-6.8,5-7.6
					c3.9-1.1,6.8,1.2,6.8,6.4L392.1,369.3z"/>
			</g>
			<g>
				<path fill="#FF00F9" d="M408.4,370.7c-3.9,1.1-6.8-1.2-6.8-6.4l-0.1-42.9c0-4,1.9-6.8,5-7.6l28.7-7.8c2.9-0.8,5.9,1,6.7,3.8
					c0.8,2.9-1,5.8-3.9,6.6l-24.9,6.7v11.7l18.6-5c2.9-0.8,5.9,0.9,6.7,3.8c0.8,2.9-1,5.8-3.9,6.5l-21.4,5.8V358l22.5-6.1
					c2.9-0.8,5.9,1,6.7,3.8c0.8,2.9-1,5.8-3.9,6.6L408.4,370.7z"/>
			</g>
		</g>
		<g>
			<g>
				<path fill="#FF00F9" d="M218.9,474.1c-0.7-2.6-3-3.6-11-4.6c-7.7-1-14.9-3-17.1-10.9c-3-10.9,5-20.3,16.4-23.4
					c8.3-2.2,13.5-1.1,17.5,0.3c1.9,0.7,3.4,1.8,4.1,4.2c0.9,3.3-1.1,6.5-4.3,7.3c-1.2,0.3-2.4,0.3-3.5-0.1c-4.3-1.8-7.6-2.2-12-1.1
					c-5,1.3-7,4.9-6.3,7.6c0.8,2.8,3.2,3.5,11.3,4.5s14.6,3.2,16.8,10.9c3.1,11.2-5.2,20.5-16.4,23.6c-6.4,1.7-14.7,2.5-21.5-0.8
					c-1.6-0.7-3.1-2.2-3.6-4.3c-0.9-3.3,0.8-6.6,4.1-7.5c1.6-0.4,3.2,0,4.2,0.4c5.5,2.5,9.3,3.1,14.5,1.6
					C216.9,480.6,219.8,477.4,218.9,474.1z"/>
			</g>
			<g>
				<path fill="#FF00F9" d="M252.1,475.5c0,4-1.9,6.8-5,7.6c-3.9,1.1-6.8-1.2-6.8-6.4l-0.1-43.3c0-4,1.9-6.8,5-7.6l12-3.2
					c7.6-2.1,13.3-2,18.3,0.9c3.5,2,5.8,5.2,7.1,9.9c3.6,13.3-5.7,23.9-20.3,27.9l-10.2,2.8L252.1,475.5z M260.1,450.7
					c7.8-2.1,12.1-7.1,10.5-13.1c-0.5-1.8-1.5-3.1-3-4c-2.1-1.1-4.4-1.3-8-0.4l-7.6,2.1l0.1,17.5L260.1,450.7z"/>
			</g>
			<g>
				<path fill="#FF00F9" d="M338.4,449.1c0.4,1.1,1,2.2,1.2,3c0.8,3.1-1,6.4-4.5,7.3c-3.3,0.9-5.9-0.5-7-3.1l-3.3-7.5l-23.7,6.4
					l-3.7,10.5c-0.9,2.4-2.5,4.6-5,5.3c-3.1,0.8-5.3-0.5-6.1-3.3c-0.3-1.2-0.3-2.8,0.3-4.3l18.4-49.8c1.1-3.3,3.2-5.8,7-6.8h0.2
					c4-1.1,6.4,0.6,7.9,3.8L338.4,449.1z M320.3,438.8l-7.6-16.9l-7.3,20.9L320.3,438.8z"/>
			</g>
			<g>
				<path fill="#FF00F9" d="M373.7,449.3c-14.6,4-27.7-2.2-31.5-16.5c-4.6-17,5.9-35.9,23.9-40.8c7.9-2.2,14.1-1,19.5,1.8
					c1.5,0.8,3.2,2.1,3.8,4.3c0.9,3.3-1,6.8-4.4,7.7c-1.7,0.5-3.2,0.4-4.6-0.6c-3.6-2.3-7.1-3.6-12.8-2.1
					c-9.8,2.6-16.3,14.4-13.3,25.8c2.1,7.7,8.9,11.4,16.6,9.4c4.4-1.2,6.2-2.9,9.2-6.2c0.9-1,2.2-2.1,3.6-2.4c3.1-0.8,6,1.1,6.9,4.1
					c0.5,1.9,0,3.6-0.9,4.9C386.5,443.4,380.6,447.5,373.7,449.3z"/>
			</g>
			<g>
				<path fill="#FF00F9" d="M407,439.4c-3.9,1.1-6.8-1.2-6.8-6.4l-0.1-42.9c0-4,1.9-6.8,5-7.6l28.7-7.8c2.9-0.8,5.9,1,6.7,3.8
					c0.8,2.9-1,5.8-3.9,6.6l-24.9,6.7v11.7l18.6-5c2.9-0.8,5.9,0.9,6.7,3.8c0.8,2.9-1,5.8-3.9,6.5l-21.4,5.8v12.1l22.5-6.1
					c2.9-0.8,5.9,1,6.7,3.8c0.8,2.9-1,5.8-3.9,6.6L407,439.4z"/>
			</g>
		</g>
	</g>
</g>
<g>
	<path fill="#FF00F9" d="M143.5,529.9c-0.9,0-1.7,0-2.5-0.1c-9.9-0.9-14.5-7.5-14.5-20.5V380.2c0-10.4,7-19.5,17-22.2l39.3-10
		l260.5-69.6l26.6-7.2c6.6-1.8,13.5-0.4,18.9,3.7c5.4,4.2,8.6,10.5,8.6,17.4v17.6H496v-17.6c0-6.4-2.9-12.3-8-16.2
		c-5.1-3.9-11.5-5.2-17.7-3.5l-26.6,7.2l-260.6,69.6l-39.3,10c-9.4,2.5-15.9,11.1-15.9,20.8v128.9c0,15.9,7.1,18.5,13.2,19.1
		c3.1,0.3,6.4,0,9.8-0.9l3-0.7l0.3,1.4l-3,0.7C148.6,529.5,146,529.9,143.5,529.9z"/>
</g>
<g>
	<path d="M150,523.5"/>
</g>
<g>
	<g>
		<path fill="#FF00F9" d="M472,380.3h-0.4c-1.2,0-2.5-0.2-3.8-0.5c-4.2-1.2-7.7-4-9.8-7.9c-2.5-4.5-2.9-10.2-1.2-15.5
			c2.8-8.7,10.5-14.8,18.9-14.5c1.2,0,2.5,0.2,3.8,0.5c4.2,1.2,7.7,4,9.8,7.9c2.5,4.5,2.9,10.2,1.2,15.5
			C487.7,374.4,480.1,380.3,472,380.3z M475.1,343.3c-7.5,0-14.5,5.6-17,13.6c-1.6,4.9-1.2,10.2,1.1,14.4c1.9,3.6,5.1,6.1,8.9,7.2
			c1.2,0.3,2.4,0.5,3.5,0.5h0.4c7.5,0,14.6-5.6,17.1-13.6c1.6-4.9,1.2-10.2-1.1-14.4c-1.9-3.6-5.1-6.1-8.9-7.2
			c-1.2-0.3-2.4-0.5-3.5-0.5C475.4,343.3,475.3,343.3,475.1,343.3z"/>
	</g>
	<g>
		<path fill="#FF00F9" d="M472.1,377.6c-1.2,0-2.4-0.2-3.5-0.5c-3.4-0.9-6.3-3.3-8.1-6.5c-2.1-3.9-2.5-8.8-1-13.5
			c2.3-7.4,8.8-12.6,15.7-12.6c1.2,0,2.4,0.2,3.5,0.5c3.4,0.9,6.3,3.3,8.1,6.5c2.1,3.9,2.5,8.8,1,13.5
			C485.4,372.4,479,377.6,472.1,377.6z M475.1,346c-6.3,0-12.2,4.8-14.3,11.6c-1.4,4.3-1,8.8,0.9,12.4c1.6,2.9,4.1,5,7.2,5.8
			c1,0.3,2.1,0.4,3.1,0.4c6.3,0,12.2-4.8,14.3-11.6c1.4-4.3,1-8.8-0.9-12.4c-1.6-2.9-4.1-5-7.2-5.8C477.3,346.1,476.2,346,475.1,346
			z"/>
	</g>
</g>
<g>
	<g>
		<path fill="#FF00F9" d="M153.3,472.8c-0.1,0-0.3,0-0.4,0c-0.9-0.1-1.6-0.5-2.2-1.2c-0.6-0.7-0.8-1.6-0.6-2.6
			c0.3-1.6,1.6-2.8,3.1-3.1c0.2,0,0.5-0.1,0.8,0c0.9,0.1,1.6,0.5,2.2,1.2c0.6,0.7,0.8,1.6,0.6,2.6c-0.2,1.6-1.5,2.8-3.1,3.1
			C153.6,472.8,153.4,472.8,153.3,472.8z M153.6,467.3h-0.1c-1,0.2-1.8,0.9-2,1.9c-0.1,0.5,0,1.1,0.3,1.5s0.7,0.6,1.2,0.6h0.1
			c0.1,0,0.1,0,0.2,0c1.1-0.2,1.9-0.9,2-1.9c0.1-0.6,0-1.1-0.3-1.5s-0.7-0.6-1.2-0.6H153.6L153.6,467.3z"/>
	</g>
</g>
<g>
	<path fill="#FF00F9" d="M153.6,458.2h-0.3c-0.6,0-1.1-0.3-1.4-0.7c-0.3-0.4-0.5-1-0.4-1.5v-39.1c-0.1-0.2,0-0.5,0-0.7
		c0.2-0.9,0.9-1.6,1.8-1.7h0.4c0.6,0,1.1,0.3,1.4,0.7c0.3,0.4,0.5,1,0.4,1.5v39.1c0.1,0.2,0,0.5,0,0.7
		C155.3,457.3,154.5,458,153.6,458.2L153.6,458.2z M153.5,415.8c-0.3,0.1-0.6,0.3-0.6,0.6v0.1v0.2v39.4c0,0.2,0,0.3,0.1,0.4
		s0.1,0.2,0.3,0.2h0.2c0.3-0.1,0.6-0.3,0.6-0.6V456v-0.1v-0.1v-39.4c0-0.2,0-0.3-0.1-0.4s-0.1-0.2-0.3-0.2H153.5z"/>
</g>
<g>
	<path fill="#F9E4D7" d="M240.4,324.7c0.5,1.1,0,2.4-1.3,2.8l-28.7,7.7c-2.8,0.6-3.4-0.2-4.4-1.4l-0.3-0.3c-1.3-1.6-0.6-4.1,1.5-4.6
		l28.1-7.5c0.4-0.1,0.8-0.1,1.1-0.1c1.6,0,3,1,3.6,2.5L240.4,324.7z"/>
	<path fill="#FF00F9" d="M208.9,336.2c-1.8,0-2.5-0.9-3.3-1.8l-0.4-0.4c-0.8-1-1-2.3-0.7-3.4c0.4-1.2,1.3-2,2.5-2.3l28-7.5
		c0.4-0.1,0.9-0.2,1.3-0.2h0.1c1.8,0,3.5,1.2,4.1,2.9l0.5,1c0.3,0.7,0.4,1.5,0,2.3c-0.3,0.7-1,1.3-1.8,1.6l-28.7,7.7
		C209.9,336.1,209.4,336.2,208.9,336.2z M236.5,321.9h-0.1c-0.3,0-0.6,0-0.9,0.1l-28,7.5c-0.7,0.2-1.3,0.7-1.5,1.4
		c-0.2,0.7-0.1,1.5,0.4,2.1l0.3,0.4c0.7,0.8,1.1,1.3,2.2,1.3c0.4,0,0.9-0.1,1.5-0.2l28.6-7.7c0.4-0.1,0.7-0.4,0.8-0.8
		c0.1-0.3,0.1-0.7,0-1.1l-0.5-1C238.8,322.8,237.7,321.9,236.5,321.9z"/>
</g>
</svg>
